<svg id="svg" version="1.1" xmlns="http://www.w3.org/2000/svg" xmlns:xlink="http://www.w3.org/1999/xlink" width="400" height="266.25" viewBox="0, 0, 400,266.25"><g id="svgg"><path id="path0" d="M0.000 133.156 L 0.000 266.312 200.000 266.312 L 400.000 266.312 400.000 133.156 L 400.000 0.000 200.000 0.000 L 0.000 0.000 0.000 133.156 M195.129 36.218 C 195.026 36.613,195.121 36.751,195.498 36.751 C 195.785 36.751,196.005 36.566,196.005 36.326 C 196.005 35.948,196.581 35.909,201.132 35.978 C 206.124 36.054,208.205 36.315,207.098 36.726 C 206.651 36.892,206.645 36.942,207.031 37.262 C 207.265 37.456,207.465 37.990,207.475 38.448 C 207.492 39.164,207.528 39.206,207.733 38.748 C 207.881 38.421,207.950 40.899,207.914 45.193 C 207.858 52.010,207.656 53.601,206.980 52.571 C 206.851 52.375,206.422 52.446,205.624 52.798 L 204.458 53.313 205.163 53.775 L 205.867 54.237 204.598 55.297 C 201.320 58.036,199.298 58.847,195.840 58.811 C 193.674 58.788,191.609 57.896,191.032 56.733 C 190.655 55.975,190.796 52.033,191.217 51.525 C 191.362 51.350,191.600 49.243,191.747 46.842 C 191.893 44.441,192.124 41.643,192.259 40.623 C 192.395 39.604,192.454 38.686,192.390 38.583 C 192.327 38.481,192.348 38.207,192.437 37.975 C 192.711 37.263,193.073 37.788,193.121 38.964 L 193.165 40.080 193.272 39.044 C 193.331 38.474,193.564 37.725,193.791 37.379 C 194.098 36.910,194.117 36.751,193.864 36.751 C 193.639 36.751,193.687 36.573,194.008 36.218 C 194.273 35.925,194.665 35.686,194.879 35.686 C 195.137 35.686,195.222 35.865,195.129 36.218 M193.342 52.597 C 193.342 52.816,193.537 52.996,193.774 52.996 C 194.128 52.996,194.146 52.924,193.875 52.597 C 193.692 52.377,193.498 52.197,193.443 52.197 C 193.387 52.197,193.342 52.377,193.342 52.597 M152.929 54.478 C 151.504 55.333,151.455 55.579,152.852 54.866 C 154.168 54.195,154.329 54.196,155.020 54.886 L 155.579 55.445 155.407 54.820 C 155.253 54.261,155.315 54.285,155.985 55.042 C 157.050 56.248,158.322 58.677,157.952 58.801 C 157.788 58.855,157.718 59.005,157.796 59.132 C 157.875 59.260,158.107 59.300,158.310 59.222 C 158.515 59.143,158.809 59.319,158.968 59.616 C 159.328 60.289,159.339 60.803,158.988 60.586 C 158.567 60.326,158.678 60.884,159.121 61.252 C 159.440 61.516,159.521 61.516,159.521 61.252 C 159.521 60.988,159.604 60.989,159.923 61.254 C 160.232 61.510,160.255 61.675,160.021 61.956 C 159.836 62.179,159.777 62.771,159.871 63.457 C 160.039 64.680,159.433 65.527,157.523 66.737 C 157.084 67.016,156.545 67.446,156.325 67.693 C 155.873 68.203,154.679 68.931,152.730 69.887 C 151.997 70.246,150.977 70.794,150.461 71.106 C 149.223 71.854,148.234 71.512,147.575 70.109 C 147.037 68.964,146.319 67.694,145.516 66.466 C 145.090 65.815,144.918 64.993,144.782 62.968 C 144.662 61.185,144.690 60.450,144.868 60.719 C 145.098 61.068,145.132 61.064,145.136 60.688 C 145.138 60.452,145.403 59.913,145.726 59.490 L 146.312 58.722 145.724 59.231 C 145.133 59.743,144.664 59.676,145.002 59.128 C 145.425 58.445,150.466 55.484,150.466 55.920 C 150.466 56.069,150.326 56.192,150.155 56.192 C 149.984 56.192,149.914 56.261,149.999 56.346 C 150.353 56.700,151.308 55.899,150.990 55.515 C 150.740 55.215,150.866 55.054,151.639 54.686 C 152.165 54.434,152.597 54.131,152.597 54.012 C 152.597 53.893,152.926 53.796,153.329 53.797 C 154.024 53.800,154.004 53.834,152.929 54.478 M249.539 58.715 C 249.329 58.968,249.309 59.121,249.486 59.121 C 249.641 59.121,249.833 59.017,249.912 58.890 C 250.173 58.468,252.197 58.285,252.570 58.650 C 252.906 58.979,254.797 60.608,257.244 62.675 C 258.770 63.965,259.121 64.415,259.121 65.082 C 259.121 65.607,259.116 65.608,258.721 65.098 C 258.397 64.679,258.351 64.668,258.481 65.040 C 258.570 65.298,258.374 65.940,258.032 66.505 C 257.456 67.458,257.453 67.485,257.980 67.027 C 259.747 65.490,257.700 69.042,255.075 72.069 C 254.298 72.965,253.093 74.092,252.397 74.574 C 251.701 75.055,251.132 75.554,251.132 75.681 C 251.132 75.808,250.802 76.038,250.399 76.192 C 249.140 76.674,247.998 76.086,245.295 73.561 L 242.786 71.219 243.036 69.498 C 243.173 68.551,243.406 67.797,243.553 67.823 C 243.700 67.848,243.820 67.409,243.820 66.846 C 243.820 66.283,243.728 65.880,243.615 65.950 C 243.222 66.192,243.411 65.310,243.826 64.965 C 244.055 64.775,244.429 64.260,244.656 63.821 C 245.083 62.994,248.117 59.347,249.068 58.515 C 249.694 57.969,250.038 58.115,249.539 58.715 M122.932 87.030 C 124.908 88.111,126.040 89.004,125.701 89.213 C 125.447 89.370,125.501 89.498,125.912 89.718 C 126.617 90.096,126.845 90.093,126.607 89.708 C 126.304 89.217,127.763 89.683,128.858 90.426 C 129.552 90.898,129.680 91.079,129.320 91.079 C 128.901 91.079,128.932 91.165,129.525 91.631 C 129.911 91.934,130.226 92.413,130.226 92.696 C 130.226 92.978,130.396 93.209,130.604 93.209 C 131.013 93.209,130.483 95.015,129.823 95.872 C 129.654 96.092,129.349 96.691,129.145 97.204 C 128.066 99.923,125.699 102.941,125.699 101.598 C 125.699 101.141,125.469 101.099,124.908 101.454 C 124.576 101.664,124.592 101.732,125.012 101.893 C 125.539 102.095,123.911 103.867,123.206 103.858 C 122.859 103.853,120.768 103.170,119.973 102.801 C 119.680 102.665,118.998 102.378,118.457 102.162 C 117.917 101.947,116.958 101.382,116.327 100.906 L 115.180 100.041 115.131 97.774 C 115.090 95.906,115.172 95.379,115.597 94.783 C 115.880 94.385,116.112 93.933,116.112 93.779 C 116.112 93.522,117.105 91.877,117.675 91.189 C 117.807 91.031,117.995 90.534,118.093 90.085 C 118.192 89.637,118.505 89.059,118.790 88.801 C 119.075 88.544,119.308 88.172,119.308 87.975 C 119.308 87.778,119.427 87.617,119.574 87.617 C 119.720 87.617,119.840 87.755,119.840 87.924 C 119.840 88.108,120.036 88.055,120.327 87.791 C 120.595 87.549,121.074 87.350,121.392 87.350 C 122.018 87.350,122.178 86.946,121.638 86.728 C 121.413 86.637,121.435 86.591,121.704 86.585 C 121.924 86.581,122.477 86.781,122.932 87.030 M119.186 88.930 C 119.004 89.224,119.424 89.542,119.670 89.296 C 119.923 89.043,119.876 88.682,119.590 88.682 C 119.452 88.682,119.270 88.793,119.186 88.930 M279.008 93.300 C 279.224 93.717,279.327 94.131,279.237 94.221 C 279.147 94.311,279.004 94.120,278.920 93.797 C 278.797 93.327,278.296 92.929,278.296 93.301 C 278.296 93.946,279.201 95.051,279.515 94.790 C 280.013 94.376,280.522 95.671,280.332 96.866 C 280.257 97.339,280.307 97.796,280.444 97.880 C 280.580 97.965,280.696 97.877,280.701 97.685 C 280.713 97.210,281.758 98.491,281.758 98.982 C 281.758 99.195,282.057 99.763,282.423 100.243 C 283.120 101.156,283.274 101.731,282.823 101.731 C 282.676 101.731,282.557 101.611,282.557 101.465 C 282.557 101.318,282.437 101.198,282.290 101.198 C 282.144 101.198,282.024 101.491,282.024 101.848 C 282.024 102.206,281.904 102.573,281.758 102.663 C 281.304 102.943,281.464 103.329,282.033 103.329 C 283.570 103.329,277.814 108.328,274.101 110.218 C 270.033 112.289,268.595 111.150,267.248 104.790 C 266.735 102.368,266.741 100.203,267.265 99.201 C 267.502 98.747,267.620 98.090,267.538 97.680 C 267.459 97.283,267.510 96.886,267.652 96.799 C 267.794 96.711,267.909 96.939,267.909 97.305 C 267.909 97.672,268.034 98.048,268.186 98.142 C 268.364 98.252,268.405 98.080,268.300 97.661 C 268.168 97.137,268.311 96.869,269.021 96.310 C 269.665 95.803,269.779 95.611,269.441 95.609 C 268.719 95.604,268.891 95.152,269.691 94.951 C 270.085 94.852,270.714 94.558,271.089 94.297 C 271.673 93.891,273.314 93.209,273.708 93.209 C 273.777 93.209,273.684 93.389,273.502 93.609 C 273.106 94.086,273.172 94.095,274.266 93.714 C 274.788 93.532,275.083 93.263,275.039 93.011 C 274.807 91.694,278.308 91.950,279.008 93.300 M205.244 94.599 C 207.385 94.508,209.040 94.578,210.104 94.804 C 211.638 95.129,212.255 95.575,211.252 95.632 C 210.953 95.649,211.025 95.728,211.451 95.851 C 211.819 95.957,212.195 95.926,212.292 95.782 C 212.499 95.474,215.643 96.077,215.887 96.473 C 215.975 96.615,215.882 96.839,215.680 96.971 C 215.449 97.122,215.717 97.150,216.405 97.047 C 217.278 96.915,217.759 97.021,218.800 97.576 C 219.516 97.957,220.313 98.269,220.570 98.269 C 220.828 98.269,221.250 98.479,221.508 98.735 C 221.767 98.991,222.276 99.340,222.640 99.509 C 223.004 99.678,223.542 100.007,223.835 100.241 C 224.128 100.474,225.073 101.135,225.936 101.709 C 228.104 103.152,231.958 106.764,233.441 108.740 C 234.119 109.646,234.842 110.482,235.047 110.599 C 235.252 110.716,235.421 110.956,235.423 111.132 C 235.435 112.107,237.172 113.532,237.889 113.155 C 239.567 112.272,244.664 109.725,245.273 109.464 C 245.639 109.308,246.298 108.951,246.738 108.671 C 247.595 108.124,248.735 107.958,248.735 108.380 C 248.735 108.522,248.922 108.567,249.150 108.479 C 249.378 108.392,249.502 108.158,249.426 107.959 C 249.095 107.096,252.716 106.859,253.749 107.676 C 254.003 107.877,254.172 107.849,254.353 107.573 C 254.656 107.111,255.309 107.828,255.582 108.921 C 255.673 109.288,255.906 109.707,256.099 109.854 C 256.569 110.209,256.891 111.851,256.491 111.851 C 256.309 111.851,256.192 112.378,256.192 113.198 C 256.192 113.939,256.287 114.486,256.404 114.414 C 256.521 114.342,256.774 114.380,256.965 114.498 C 257.570 114.872,251.759 118.242,250.510 118.242 C 250.302 118.242,249.983 118.422,249.800 118.642 C 249.618 118.862,249.289 119.041,249.068 119.041 C 248.848 119.041,247.960 119.401,247.096 119.840 C 246.231 120.280,245.306 120.639,245.039 120.639 C 244.773 120.639,244.269 120.887,243.919 121.191 C 243.569 121.495,242.947 121.810,242.537 121.892 C 241.548 122.090,241.226 122.731,241.692 123.573 C 241.894 123.937,242.063 124.508,242.068 124.843 C 242.080 125.622,242.824 126.764,243.318 126.764 C 243.602 126.764,243.660 126.985,243.545 127.630 C 243.407 128.411,243.477 128.534,244.266 128.895 C 245.024 129.241,245.129 129.407,245.058 130.149 C 245.003 130.717,245.177 131.277,245.573 131.813 C 246.066 132.480,246.203 133.114,246.350 135.412 C 246.452 137.010,246.671 138.375,246.864 138.607 C 247.138 138.937,247.120 139.134,246.769 139.670 C 246.532 140.031,246.338 140.623,246.338 140.984 C 246.338 141.779,245.670 142.510,245.132 142.304 C 244.917 142.221,244.740 141.858,244.740 141.497 C 244.740 140.914,244.696 140.885,244.341 141.240 C 244.083 141.498,243.934 142.190,243.921 143.190 C 243.881 146.246,242.880 147.548,242.548 144.976 C 242.345 143.404,242.077 142.734,242.077 143.800 C 242.077 144.621,241.530 146.479,241.096 147.130 C 240.903 147.419,240.746 147.964,240.746 148.342 C 240.746 148.719,240.618 149.156,240.461 149.313 C 240.304 149.469,240.144 149.763,240.106 149.965 C 239.970 150.670,239.290 151.934,238.810 152.371 C 238.473 152.678,238.377 153.015,238.494 153.481 C 238.597 153.892,238.475 154.543,238.176 155.171 C 237.836 155.888,237.664 156.053,237.601 155.726 C 237.551 155.469,237.390 155.260,237.243 155.260 C 237.081 155.260,237.048 155.590,237.158 156.092 C 237.289 156.688,237.254 156.870,237.034 156.735 C 236.562 156.443,236.013 157.057,236.142 157.732 C 236.258 158.340,235.322 159.512,234.987 159.177 C 234.703 158.893,234.082 159.728,234.250 160.167 C 234.364 160.462,234.254 160.586,233.876 160.586 C 233.219 160.586,232.207 162.195,232.400 162.934 C 232.546 163.492,232.101 163.962,231.834 163.531 C 231.647 163.229,230.892 163.458,230.892 163.817 C 230.892 163.951,231.192 164.175,231.558 164.314 C 232.241 164.574,232.444 165.212,231.942 165.522 C 231.788 165.618,231.367 166.339,231.007 167.126 C 230.502 168.230,230.247 168.522,229.890 168.407 C 229.531 168.292,229.510 168.317,229.794 168.520 C 230.238 168.837,229.920 169.467,229.414 169.273 C 229.195 169.189,229.108 169.272,229.190 169.486 C 229.268 169.690,228.929 170.070,228.377 170.395 C 227.856 170.703,227.430 171.074,227.430 171.220 C 227.430 171.366,226.584 172.419,225.551 173.559 C 224.517 174.699,223.506 176.020,223.303 176.494 C 222.873 177.497,221.165 179.799,220.626 180.102 C 220.422 180.217,220.134 180.756,219.986 181.300 C 219.813 181.932,219.449 182.441,218.979 182.707 C 218.450 183.007,218.055 183.630,217.577 184.917 C 217.210 185.903,216.521 187.139,216.045 187.663 C 215.569 188.187,215.180 188.698,215.180 188.799 C 215.180 188.899,214.820 189.326,214.381 189.747 C 213.941 190.168,213.582 190.669,213.582 190.861 C 213.582 191.403,211.728 193.325,210.671 193.879 C 210.148 194.153,209.201 194.914,208.565 195.570 C 207.497 196.674,204.986 198.136,204.159 198.136 C 203.964 198.136,203.269 198.545,202.615 199.045 C 201.819 199.652,200.990 200.017,200.113 200.146 C 199.392 200.252,198.083 200.572,197.204 200.857 C 196.325 201.141,194.954 201.549,194.156 201.762 C 193.359 201.976,192.555 202.276,192.370 202.430 C 192.184 202.584,191.170 202.819,190.115 202.951 C 189.061 203.083,187.828 203.304,187.375 203.442 C 186.922 203.580,186.012 203.849,185.353 204.041 C 183.396 204.612,176.131 204.521,175.015 203.912 C 174.529 203.647,173.990 203.481,173.817 203.544 C 173.644 203.607,173.297 203.481,173.047 203.263 C 172.795 203.043,172.105 202.873,171.502 202.881 C 170.590 202.894,170.363 202.788,170.108 202.227 C 169.737 201.414,168.622 200.799,167.517 200.799 C 166.918 200.799,166.631 200.637,166.450 200.200 C 166.086 199.319,165.369 198.560,164.296 197.920 C 163.773 197.608,162.870 196.830,162.288 196.191 C 161.707 195.552,161.053 194.920,160.836 194.785 C 160.619 194.651,160.296 194.209,160.118 193.803 C 159.939 193.397,159.522 192.962,159.191 192.835 C 158.441 192.548,157.555 191.591,157.749 191.277 C 157.829 191.149,157.539 190.833,157.105 190.577 C 156.671 190.321,156.024 189.535,155.667 188.830 C 155.310 188.126,154.850 187.485,154.645 187.407 C 154.236 187.250,152.597 184.263,152.597 183.674 C 152.597 183.471,152.345 183.077,152.037 182.798 C 151.273 182.107,150.832 181.181,150.599 179.779 C 150.352 178.294,149.278 175.307,148.785 174.735 C 148.265 174.130,147.777 172.262,147.524 169.907 C 147.406 168.808,147.181 167.190,147.024 166.312 C 146.713 164.567,146.927 158.534,147.308 158.299 C 147.434 158.221,147.537 157.977,147.537 157.757 C 147.537 157.537,147.892 156.615,148.327 155.709 C 148.762 154.803,149.373 153.230,149.685 152.214 C 150.369 149.985,150.872 149.030,152.004 147.810 C 152.477 147.301,152.863 146.678,152.863 146.424 C 152.863 146.171,153.174 145.748,153.554 145.485 C 154.328 144.949,154.399 144.881,156.963 142.239 C 157.972 141.198,158.905 140.346,159.035 140.346 C 159.165 140.346,159.343 140.160,159.430 139.931 C 159.518 139.703,159.740 139.574,159.924 139.645 C 160.174 139.741,160.303 138.995,160.437 136.664 C 160.660 132.785,161.104 127.849,161.286 127.226 C 161.479 126.565,161.911 126.922,161.953 127.779 C 161.982 128.388,162.013 128.356,162.158 127.563 C 162.252 127.051,162.225 126.558,162.099 126.468 C 161.804 126.257,162.091 123.555,162.446 123.200 C 163.113 122.532,162.404 120.639,161.486 120.639 C 161.294 120.639,160.601 120.340,159.945 119.973 C 159.289 119.607,158.600 119.308,158.415 119.308 C 158.229 119.308,157.353 118.958,156.469 118.530 C 154.942 117.792,154.057 117.386,150.333 115.714 C 147.515 114.450,143.958 112.616,143.409 112.145 C 143.116 111.894,142.391 111.380,141.797 111.002 C 136.459 107.605,134.173 99.245,138.282 98.144 C 138.612 98.056,139.346 97.844,139.914 97.673 C 143.136 96.704,151.194 101.152,158.844 108.123 C 165.381 114.080,166.238 114.598,167.099 113.116 C 167.375 112.640,167.761 112.154,167.955 112.037 C 168.150 111.920,168.309 111.665,168.309 111.471 C 168.309 110.936,169.163 110.294,169.307 110.721 C 169.369 110.905,169.542 110.980,169.692 110.887 C 169.866 110.780,169.841 110.643,169.623 110.509 C 168.925 110.077,175.514 103.040,177.396 102.207 C 177.818 102.020,178.162 101.775,178.162 101.662 C 178.162 101.254,180.045 100.531,180.249 100.861 C 180.374 101.064,180.575 101.085,180.833 100.922 C 181.162 100.714,181.150 100.673,180.759 100.670 C 179.853 100.662,180.315 100.212,182.224 99.245 C 184.067 98.311,185.517 97.883,184.554 98.557 C 184.248 98.771,184.311 98.794,184.820 98.656 C 185.729 98.409,186.126 98.006,185.473 97.992 C 184.855 97.978,186.556 96.967,187.227 96.949 C 187.453 96.942,188.112 96.689,188.692 96.386 C 189.547 95.939,190.050 95.862,191.345 95.983 C 192.224 96.064,193.123 96.015,193.342 95.872 C 193.684 95.652,193.674 95.613,193.276 95.610 C 192.472 95.603,192.768 95.105,193.675 94.937 C 196.026 94.503,197.341 94.421,199.568 94.572 C 200.904 94.663,203.458 94.675,205.244 94.599 M252.330 106.525 C 252.421 106.671,252.241 106.791,251.931 106.791 C 251.621 106.791,251.441 106.671,251.531 106.525 C 251.622 106.378,251.802 106.258,251.931 106.258 C 252.060 106.258,252.240 106.378,252.330 106.525 M116.911 127.031 C 117.208 127.223,117.220 127.290,116.957 127.293 C 116.763 127.295,116.972 127.607,117.423 127.986 C 117.921 128.405,118.242 128.928,118.242 129.318 C 118.242 129.671,118.362 129.960,118.509 129.960 C 118.655 129.960,118.775 129.820,118.775 129.649 C 118.775 129.478,118.855 129.419,118.953 129.516 C 119.255 129.819,119.023 133.276,118.688 133.464 C 118.476 133.583,118.403 134.373,118.462 135.931 C 118.512 137.259,118.652 138.158,118.796 138.069 C 118.941 137.980,119.029 138.591,119.008 139.531 C 118.976 140.974,118.711 141.620,118.461 140.869 C 118.410 140.717,118.154 140.957,117.891 141.402 C 117.475 142.106,117.467 142.210,117.828 142.210 C 118.428 142.210,118.339 142.560,117.550 143.296 C 117.170 143.651,116.682 144.380,116.466 144.916 C 115.677 146.873,112.102 148.906,109.252 149.018 C 108.481 149.049,107.696 149.202,107.507 149.359 C 107.258 149.566,106.952 149.536,106.401 149.250 C 105.709 148.891,105.544 148.902,104.589 149.375 C 103.989 149.672,103.350 149.815,103.100 149.708 C 100.501 148.597,99.208 146.433,99.416 143.542 C 99.615 140.769,100.135 137.063,100.407 136.485 C 100.876 135.485,101.183 133.504,101.222 131.230 C 101.273 128.238,101.711 127.526,101.758 130.360 C 101.833 134.895,102.179 136.245,102.223 132.172 C 102.262 128.578,102.293 128.372,102.863 127.970 C 103.371 127.612,103.401 127.510,103.063 127.296 C 102.804 127.133,105.050 127.017,109.454 126.966 C 113.189 126.923,116.305 126.862,116.378 126.830 C 116.451 126.798,116.691 126.889,116.911 127.031 M285.553 131.290 C 286.572 131.291,287.350 131.407,287.350 131.558 C 287.350 131.715,286.282 131.840,284.754 131.862 C 282.360 131.896,282.272 131.915,283.622 132.107 C 284.427 132.221,286.902 132.313,289.120 132.311 C 293.295 132.308,294.274 132.511,294.274 133.377 C 294.274 134.863,293.712 145.102,293.604 145.588 C 293.532 145.908,293.212 146.253,292.892 146.354 C 292.330 146.533,292.327 146.551,292.813 146.906 C 293.292 147.256,293.272 147.318,292.370 148.270 C 291.851 148.819,291.032 149.891,290.550 150.653 C 289.315 152.606,288.430 152.874,282.735 153.022 C 277.454 153.160,276.688 152.922,275.673 150.832 C 274.953 149.350,274.883 146.454,275.536 145.146 C 275.776 144.664,276.076 143.118,276.202 141.709 C 276.768 135.369,277.054 133.816,277.640 133.895 C 278.049 133.951,278.267 133.738,278.523 133.030 C 278.710 132.513,278.975 132.091,279.112 132.091 C 279.249 132.091,279.361 131.833,279.361 131.518 C 279.361 130.966,279.435 130.952,281.558 131.117 C 282.766 131.211,284.564 131.289,285.553 131.290 M295.065 135.819 C 295.065 137.357,294.949 138.795,294.807 139.015 C 294.633 139.283,294.549 138.237,294.549 135.819 C 294.549 133.401,294.633 132.354,294.807 132.623 C 294.949 132.843,295.065 134.281,295.065 135.819 M245.571 138.506 C 245.252 139.227,245.261 139.383,245.639 139.762 C 246.039 140.161,246.072 140.097,246.072 138.939 C 246.072 137.455,246.046 137.433,245.571 138.506 M241.837 149.227 L 241.278 149.785 241.278 148.947 C 241.278 148.361,241.419 148.080,241.744 148.015 C 242.427 147.877,242.481 148.582,241.837 149.227 M124.337 166.873 C 123.641 167.258,123.920 167.334,124.767 166.990 C 125.151 166.833,125.471 166.930,125.914 167.335 C 126.500 167.872,126.519 167.873,126.332 167.371 C 126.225 167.081,126.009 166.756,125.852 166.649 C 125.676 166.528,125.732 166.451,125.999 166.449 C 126.603 166.443,128.096 168.592,128.096 169.468 C 128.096 169.604,128.628 170.601,129.279 171.683 C 129.930 172.766,130.546 173.917,130.649 174.243 C 130.751 174.568,131.058 174.990,131.330 175.182 C 132.005 175.657,131.961 175.884,130.932 177.232 C 128.881 179.918,126.974 181.665,125.699 182.025 C 125.333 182.128,124.124 182.739,123.013 183.383 C 120.068 185.089,118.544 184.723,117.703 182.107 C 117.500 181.476,117.059 180.326,116.723 179.553 C 116.387 178.780,116.112 177.905,116.112 177.609 C 116.112 177.313,115.931 176.721,115.710 176.293 C 115.366 175.629,115.356 175.259,115.638 173.772 C 115.860 172.602,116.030 172.183,116.155 172.499 C 116.297 172.858,116.345 172.796,116.359 172.239 C 116.370 171.813,116.600 171.371,116.911 171.177 C 117.611 170.739,117.586 170.447,116.844 170.409 C 116.301 170.381,116.295 170.365,116.778 170.246 C 117.071 170.173,117.406 169.947,117.523 169.744 C 117.773 169.310,118.689 169.248,118.824 169.656 C 118.876 169.812,119.134 169.855,119.402 169.752 C 119.752 169.617,119.795 169.511,119.557 169.364 C 119.036 169.042,119.493 168.309,120.216 168.309 C 120.578 168.309,120.954 168.180,121.051 168.022 C 121.311 167.601,124.444 166.194,124.729 166.370 C 124.863 166.453,124.686 166.679,124.337 166.873 M269.285 170.398 C 269.334 170.522,269.854 170.696,270.439 170.785 C 271.415 170.934,271.461 170.915,270.988 170.560 C 269.743 169.628,271.259 170.295,273.217 171.541 C 275.207 172.808,275.501 173.105,275.387 173.733 C 275.364 173.860,275.636 173.892,275.991 173.802 C 276.724 173.618,277.523 174.259,276.909 174.539 C 276.719 174.625,276.829 174.630,277.152 174.551 C 277.896 174.367,279.295 175.211,278.778 175.531 C 278.322 175.812,278.299 177.097,278.749 177.097 C 279.247 177.097,279.226 177.155,277.775 179.896 C 275.578 184.045,273.542 186.582,273.669 185.009 C 273.697 184.665,273.614 184.646,273.203 184.902 C 272.663 185.240,272.539 185.619,272.969 185.619 C 273.763 185.619,272.266 187.519,270.894 188.253 C 270.213 188.617,268.765 187.988,266.977 186.551 C 266.391 186.080,265.356 185.375,264.676 184.983 C 263.287 184.183,263.075 183.591,263.315 181.180 C 263.417 180.161,263.547 179.840,263.817 179.944 C 264.027 180.024,264.181 179.912,264.181 179.678 C 264.181 179.455,264.046 179.227,263.882 179.172 C 263.588 179.075,264.786 176.061,265.236 175.766 C 265.347 175.692,265.648 175.224,265.903 174.725 C 266.159 174.227,266.595 173.575,266.873 173.277 C 267.150 172.979,267.377 172.628,267.377 172.496 C 267.377 171.778,269.088 169.898,269.285 170.398 M130.305 175.915 C 130.291 176.419,130.387 176.831,130.519 176.831 C 130.816 176.831,130.839 175.314,130.545 175.132 C 130.427 175.059,130.319 175.412,130.305 175.915 M264.482 177.869 C 264.281 177.997,264.171 178.264,264.237 178.464 C 264.321 178.717,264.455 178.645,264.678 178.228 C 265.033 177.567,265.014 177.532,264.482 177.869 M157.718 199.447 C 158.557 199.898,159.413 200.266,159.620 200.266 C 159.827 200.266,160.065 200.446,160.150 200.666 C 160.234 200.885,160.465 201.065,160.664 201.065 C 160.863 201.065,161.299 201.356,161.633 201.712 C 161.967 202.067,162.407 202.294,162.612 202.216 C 162.816 202.138,162.983 202.209,162.983 202.375 C 162.983 202.541,163.282 202.790,163.648 202.929 C 164.360 203.200,164.528 203.832,163.981 204.181 C 163.613 204.417,163.347 204.830,162.301 206.791 C 161.911 207.523,161.425 208.312,161.222 208.543 C 161.019 208.774,160.852 209.050,160.852 209.156 C 160.852 209.696,157.741 213.447,156.298 214.648 C 154.445 216.190,153.691 216.265,151.801 215.091 C 150.309 214.163,149.880 213.922,148.393 213.176 C 146.695 212.323,146.245 211.697,146.199 210.120 C 146.129 207.710,146.697 205.658,147.716 204.638 C 148.057 204.298,148.336 203.848,148.336 203.640 C 148.336 203.431,148.524 203.104,148.754 202.913 C 148.985 202.722,149.422 202.078,149.726 201.483 C 150.182 200.590,150.309 200.486,150.452 200.891 C 150.646 201.445,151.033 201.121,151.357 200.133 C 151.530 199.609,151.527 199.608,151.132 200.117 C 150.624 200.775,150.566 200.123,151.041 199.080 C 151.367 198.366,152.161 198.106,151.894 198.802 C 151.724 199.244,152.203 199.356,152.463 198.935 C 152.554 198.788,152.869 198.668,153.164 198.668 C 153.459 198.668,153.873 198.496,154.084 198.284 C 154.524 197.844,155.037 198.009,157.718 199.447 M243.000 199.748 C 242.914 199.888,243.198 199.922,243.669 199.828 C 244.248 199.712,244.637 199.799,244.995 200.123 C 245.481 200.563,245.497 200.556,245.369 199.958 C 245.252 199.407,245.332 199.442,246.053 200.256 C 246.503 200.763,246.871 201.323,246.871 201.499 C 246.871 201.675,246.967 201.860,247.084 201.909 C 247.308 202.002,249.268 205.421,249.268 205.718 C 249.268 205.813,249.148 205.816,249.001 205.726 C 248.597 205.476,248.683 206.221,249.126 206.807 C 249.504 207.307,249.517 207.302,249.525 206.671 C 249.538 205.708,249.993 206.328,250.199 207.590 C 250.312 208.285,250.286 208.531,250.122 208.298 C 249.935 208.030,249.835 208.130,249.727 208.697 C 249.648 209.112,249.695 209.522,249.833 209.607 C 249.970 209.692,249.856 210.051,249.578 210.407 C 249.301 210.762,248.830 211.533,248.531 212.122 C 248.009 213.151,247.400 213.636,244.208 215.561 C 243.549 215.959,242.602 216.575,242.104 216.931 C 240.823 217.846,239.330 217.810,238.436 216.844 C 237.544 215.881,235.153 211.758,235.153 211.183 C 235.153 210.936,234.907 210.450,234.606 210.103 C 234.211 209.648,234.110 209.284,234.242 208.797 C 234.342 208.426,234.515 207.659,234.626 207.091 C 234.737 206.524,234.933 205.985,235.062 205.893 C 235.626 205.492,235.960 204.261,235.506 204.261 C 234.835 204.261,235.741 203.363,237.110 202.671 C 237.718 202.364,238.623 201.817,239.121 201.455 C 240.026 200.798,240.922 200.564,240.613 201.065 C 240.396 201.416,240.649 201.402,241.356 201.023 C 241.919 200.723,241.920 200.711,241.406 200.520 C 240.918 200.339,240.931 200.304,241.585 200.046 C 241.974 199.892,242.372 199.637,242.469 199.479 C 242.567 199.322,242.760 199.263,242.899 199.348 C 243.038 199.434,243.083 199.614,243.000 199.748 M146.915 206.835 C 146.639 207.112,146.706 207.989,147.004 207.989 C 147.150 207.989,147.270 207.690,147.270 207.324 C 147.270 206.626,147.209 206.542,146.915 206.835 M197.559 213.606 C 197.608 213.739,198.963 213.848,200.571 213.848 C 202.392 213.848,203.433 213.751,203.334 213.590 C 203.099 213.209,204.510 212.926,204.866 213.282 C 205.089 213.504,205.082 213.582,204.841 213.582 C 204.610 213.582,204.637 213.768,204.933 214.220 C 205.725 215.429,205.289 229.835,204.433 230.759 C 204.162 231.052,203.363 232.211,202.658 233.335 C 200.677 236.493,198.981 237.270,193.931 237.336 C 186.411 237.433,185.841 234.336,189.975 215.846 L 190.333 214.248 190.532 215.397 C 190.770 216.763,190.893 216.715,191.159 215.150 L 191.358 213.981 194.015 213.833 L 196.671 213.685 194.192 213.633 C 192.829 213.605,191.768 213.492,191.836 213.382 C 192.010 213.100,197.451 213.313,197.559 213.606 M206.252 221.410 C 206.271 227.908,206.168 229.419,205.776 228.398 C 205.455 227.561,205.581 214.066,205.908 214.175 C 206.151 214.256,206.237 216.072,206.252 221.410 " stroke="none" fill="#fb0404" fill-rule="evenodd"></path><path id="path1" d="M196.138 98.135 C 194.820 98.332,192.723 98.812,191.478 99.202 C 190.233 99.591,188.899 100.008,188.513 100.128 C 182.814 101.891,173.855 108.843,171.089 113.648 C 170.815 114.125,170.517 114.514,170.428 114.514 C 170.338 114.514,169.990 115.098,169.656 115.813 C 168.967 117.284,168.784 117.305,166.716 116.156 C 164.850 115.120,163.217 113.867,159.011 110.245 C 153.488 105.489,149.131 102.414,147.502 102.123 C 146.309 101.910,145.823 102.364,144.612 104.824 C 143.687 106.703,142.953 107.346,141.689 107.382 C 137.840 107.491,146.318 113.041,156.458 117.050 C 158.216 117.745,160.253 118.585,160.985 118.917 C 161.718 119.248,162.736 119.708,163.249 119.938 C 165.059 120.749,166.472 121.656,166.194 121.828 C 165.772 122.089,165.841 126.528,166.283 127.597 C 166.518 128.164,166.764 130.557,166.951 134.088 C 167.770 149.537,174.924 160.975,187.120 166.334 C 187.979 166.711,188.921 167.125,189.214 167.254 C 197.142 170.733,209.911 169.778,218.109 165.091 C 225.834 160.675,234.144 150.817,234.713 145.395 C 234.750 145.035,234.986 144.274,235.236 143.704 C 236.788 140.165,236.855 131.068,235.365 126.232 C 234.820 124.461,234.041 122.368,233.666 121.663 C 233.458 121.275,233.289 120.790,233.289 120.586 C 233.289 120.283,231.802 117.634,230.627 115.846 C 230.483 115.626,230.129 115.012,229.841 114.481 C 229.553 113.950,228.976 113.228,228.559 112.877 C 228.142 112.526,227.716 112.020,227.614 111.753 C 227.511 111.486,227.199 111.208,226.921 111.135 C 226.642 111.062,226.352 110.765,226.276 110.475 C 226.200 110.185,225.919 109.888,225.652 109.816 C 225.385 109.744,224.867 109.281,224.501 108.788 C 224.134 108.294,223.595 107.775,223.302 107.634 C 223.009 107.493,222.120 106.817,221.326 106.132 C 220.532 105.446,219.420 104.701,218.855 104.475 C 218.290 104.249,217.707 103.839,217.559 103.563 C 217.412 103.288,217.026 103.060,216.702 103.058 C 216.377 103.055,215.480 102.704,214.707 102.279 C 213.935 101.853,212.947 101.426,212.513 101.331 C 212.079 101.235,211.655 101.047,211.572 100.912 C 211.488 100.776,211.097 100.659,210.703 100.651 C 210.309 100.643,209.447 100.411,208.788 100.137 L 207.590 99.638 209.188 99.653 C 210.067 99.662,211.051 99.833,211.375 100.034 C 212.185 100.536,214.148 100.531,213.955 100.028 C 213.877 99.823,213.551 99.593,213.231 99.516 C 212.911 99.439,211.931 99.180,211.052 98.940 C 207.449 97.958,200.015 97.556,196.138 98.135 M138.652 100.048 C 137.699 101.054,137.155 104.128,137.930 104.128 C 138.066 104.128,138.231 104.338,138.298 104.594 C 138.392 104.952,138.427 104.924,138.451 104.473 C 138.468 104.151,138.617 103.551,138.781 103.142 C 140.049 99.990,140.166 99.581,139.887 99.301 C 139.704 99.118,139.304 99.360,138.652 100.048 M214.647 100.799 C 214.829 101.019,215.084 101.198,215.212 101.198 C 215.341 101.198,215.446 101.019,215.446 100.799 C 215.446 100.569,215.206 100.399,214.881 100.399 C 214.409 100.399,214.370 100.465,214.647 100.799 M216.578 101.648 C 216.834 101.715,217.254 101.715,217.510 101.648 C 217.766 101.581,217.557 101.526,217.044 101.526 C 216.531 101.526,216.322 101.581,216.578 101.648 M230.902 120.107 C 231.236 120.381,232.999 124.289,233.426 125.699 C 234.273 128.499,234.334 128.772,234.513 130.559 C 234.710 132.516,234.243 133.182,233.953 131.358 C 233.638 129.376,232.394 125.028,231.686 123.435 C 231.555 123.142,231.259 122.423,231.027 121.838 C 230.251 119.880,229.965 119.308,229.762 119.308 C 229.651 119.308,229.561 119.112,229.561 118.872 C 229.561 118.569,229.740 118.671,230.151 119.205 C 230.475 119.628,230.813 120.033,230.902 120.107 M169.141 122.602 C 169.928 122.949,170.992 123.323,171.505 123.433 C 172.017 123.542,172.910 123.977,173.488 124.399 C 174.066 124.821,174.739 125.166,174.983 125.166 C 175.444 125.166,176.932 126.485,176.716 126.702 C 176.648 126.769,175.069 126.081,173.206 125.173 C 171.343 124.264,169.180 123.229,168.398 122.871 C 167.617 122.514,166.977 122.165,166.977 122.096 C 166.977 121.816,167.788 122.005,169.141 122.602 M180.414 122.915 C 181.422 123.393,182.135 124.496,181.711 124.921 C 181.520 125.111,181.196 125.002,180.664 124.571 C 180.240 124.227,179.560 123.735,179.153 123.479 C 177.802 122.629,178.836 122.166,180.414 122.915 M175.338 128.166 C 175.740 128.804,175.258 129.120,174.812 128.511 C 174.604 128.227,174.434 127.887,174.434 127.756 C 174.434 127.400,175.023 127.667,175.338 128.166 M173.582 150.999 C 179.440 160.726,189.962 166.950,200.583 166.972 C 202.011 166.975,203.238 167.096,203.329 167.244 C 203.419 167.390,203.456 167.512,203.411 167.515 C 203.366 167.518,202.338 167.682,201.127 167.879 C 197.003 168.549,193.294 167.861,187.328 165.319 C 182.105 163.092,175.765 157.406,173.739 153.129 C 173.080 151.738,172.427 150.391,172.289 150.137 C 172.151 149.882,172.047 149.343,172.058 148.938 C 172.070 148.516,172.143 148.373,172.229 148.602 C 172.311 148.822,172.920 149.900,173.582 150.999 " stroke="none" fill="#130d0b" fill-rule="evenodd"></path><path id="path2" d="M195.161 36.699 C 193.331 36.852,193.237 37.239,193.120 45.094 C 192.992 53.641,192.234 52.761,199.815 52.867 C 205.887 52.952,206.670 52.816,207.046 51.609 C 207.563 49.948,207.536 37.697,207.014 37.228 C 206.526 36.790,198.419 36.428,195.161 36.699 M152.536 55.066 C 149.639 56.738,148.311 57.549,147.871 57.915 C 147.614 58.129,146.986 58.582,146.475 58.921 C 144.722 60.084,144.781 60.381,147.663 64.915 C 150.693 69.681,150.350 69.551,153.817 67.249 C 155.247 66.300,157.174 65.132,158.101 64.653 C 159.999 63.671,160.315 62.793,159.254 61.445 C 158.961 61.073,158.722 60.713,158.722 60.644 C 158.722 60.289,155.632 55.440,155.079 54.927 C 154.263 54.170,154.072 54.180,152.536 55.066 M249.503 59.189 C 247.675 60.759,243.675 66.059,243.675 66.913 C 243.675 67.452,244.946 68.832,246.605 70.094 C 247.117 70.484,248.407 71.478,249.470 72.303 C 251.850 74.149,251.834 74.153,254.347 71.063 C 255.435 69.725,256.568 68.378,256.865 68.070 C 257.865 67.032,258.634 65.544,258.458 64.988 C 258.274 64.409,254.782 61.282,251.701 58.937 C 251.043 58.437,250.278 58.524,249.503 59.189 M120.281 87.837 C 120.039 88.105,119.840 88.510,119.840 88.737 C 119.840 88.964,119.680 89.282,119.485 89.444 C 119.289 89.607,118.841 90.310,118.489 91.008 C 118.138 91.706,117.786 92.337,117.707 92.410 C 117.313 92.777,115.846 95.884,115.846 96.351 C 115.846 96.762,116.621 97.328,119.108 98.734 C 124.948 102.035,125.153 102.062,126.639 99.739 C 127.147 98.945,127.563 98.227,127.563 98.143 C 127.563 98.060,127.872 97.503,128.249 96.906 C 130.640 93.118,130.721 91.079,128.482 91.079 C 128.294 91.079,128.100 90.983,128.051 90.866 C 128.003 90.750,127.423 90.380,126.764 90.046 C 125.394 89.351,124.368 88.771,123.036 87.936 C 121.899 87.224,120.869 87.187,120.281 87.837 M274.834 93.401 C 267.196 96.985,267.711 96.314,269.519 100.326 C 272.814 107.637,272.172 107.293,277.763 104.740 C 278.569 104.372,279.707 103.881,280.293 103.649 C 282.744 102.677,282.657 102.033,279.130 95.073 L 278.117 93.076 276.942 93.020 C 276.291 92.989,275.349 93.159,274.834 93.401 M197.736 94.994 C 197.297 95.052,196.099 95.284,195.073 95.507 C 194.048 95.731,192.730 96.016,192.144 96.139 C 189.481 96.702,185.750 98.053,183.888 99.128 C 183.595 99.297,182.884 99.666,182.308 99.947 C 181.732 100.229,181.094 100.625,180.891 100.829 C 180.688 101.032,180.415 101.198,180.286 101.198 C 177.819 101.198,166.572 113.396,167.100 115.499 C 167.426 116.797,168.342 116.247,169.907 113.814 C 171.161 111.864,176.099 106.437,177.688 105.262 C 181.747 102.260,186.776 99.634,190.546 98.547 C 195.496 97.120,197.644 96.806,202.264 96.835 C 228.137 96.995,245.933 121.663,237.786 146.072 C 232.822 160.944,217.731 172.037,202.462 172.037 C 197.331 172.037,189.250 170.265,186.019 168.432 C 185.433 168.099,184.294 167.549,183.489 167.209 C 181.070 166.187,178.780 164.526,175.555 161.451 C 174.594 160.536,173.739 159.780,173.655 159.772 C 173.369 159.745,168.476 152.911,167.817 151.619 C 163.798 143.732,162.575 132.744,164.844 124.902 C 165.244 123.518,165.173 122.820,164.599 122.513 C 163.968 122.176,163.326 122.720,163.096 123.787 C 163.011 124.179,162.838 124.740,162.712 125.033 C 162.462 125.615,161.797 129.636,161.509 132.310 C 159.627 149.779,174.327 169.401,192.103 173.149 C 198.341 174.464,202.844 174.452,210.120 173.100 C 222.007 170.891,233.434 161.216,238.896 148.735 C 242.062 141.500,242.675 127.548,240.051 122.450 C 239.504 121.388,239.585 120.701,240.280 120.515 C 242.484 119.924,243.127 119.733,244.075 119.387 C 244.660 119.173,245.499 118.834,245.939 118.634 C 246.378 118.434,247.427 118.024,248.269 117.724 C 249.111 117.423,250.429 116.942,251.198 116.654 C 251.967 116.367,253.375 115.847,254.328 115.499 L 256.059 114.866 256.137 113.392 C 256.380 108.865,253.388 106.326,249.804 108.016 C 246.166 109.732,244.334 110.668,244.252 110.852 C 244.203 110.962,243.982 111.052,243.760 111.052 C 243.317 111.052,238.468 113.572,237.795 114.152 C 237.112 114.741,236.537 114.571,236.091 113.648 C 235.001 111.392,231.228 106.960,228.181 104.357 C 227.263 103.572,226.350 102.780,226.153 102.597 C 225.955 102.413,225.705 102.264,225.597 102.264 C 225.489 102.264,225.168 102.051,224.884 101.790 C 220.015 97.324,206.191 93.863,197.736 94.994 M102.832 128.029 C 102.095 128.646,101.827 141.135,102.537 141.742 C 102.837 141.998,104.665 142.060,110.282 142.003 L 117.635 141.928 118.094 141.070 C 118.904 139.560,118.609 129.186,117.730 128.250 L 117.084 127.563 110.236 127.563 C 104.103 127.563,103.330 127.612,102.832 128.029 M279.171 132.018 C 277.954 132.866,277.348 145.296,278.495 145.898 C 278.895 146.108,283.347 146.368,290.413 146.594 C 292.409 146.658,293.390 146.382,293.590 145.699 C 293.918 144.578,294.294 133.069,294.012 132.786 C 293.830 132.603,291.812 132.426,288.736 132.323 C 285.996 132.231,282.796 132.074,281.625 131.974 C 280.453 131.874,279.349 131.894,279.171 132.018 M124.365 167.105 C 123.141 167.541,120.673 168.814,119.871 169.424 C 119.522 169.689,119.041 169.907,118.803 169.907 C 118.143 169.907,116.374 171.566,116.376 172.183 C 116.378 172.671,117.313 174.630,119.421 178.562 C 119.814 179.294,120.433 180.205,120.798 180.586 L 121.461 181.278 125.644 179.186 C 130.862 176.576,130.916 176.503,129.593 173.819 C 128.244 171.082,126.930 168.723,126.698 168.620 C 126.588 168.571,126.498 168.382,126.498 168.200 C 126.498 167.350,125.343 166.758,124.365 167.105 M268.727 171.479 C 268.424 171.905,268.176 172.324,268.176 172.411 C 268.176 172.498,267.771 173.138,267.277 173.834 C 263.784 178.753,263.638 179.686,266.112 181.286 C 273.026 185.759,273.000 185.751,274.104 183.732 C 274.378 183.232,275.068 182.104,275.638 181.225 C 279.063 175.946,279.072 175.893,276.785 174.556 C 276.078 174.143,275.032 173.467,274.461 173.054 C 273.889 172.641,273.260 172.304,273.063 172.304 C 272.865 172.304,272.703 172.206,272.703 172.086 C 272.703 170.924,269.473 170.431,268.727 171.479 M151.970 199.322 C 151.582 199.681,151.265 200.093,151.265 200.237 C 151.265 200.381,150.755 201.256,150.131 202.180 C 147.099 206.677,146.677 207.878,147.870 208.613 C 151.313 210.734,155.871 213.316,156.173 213.316 C 156.500 213.316,157.329 212.133,158.986 209.301 C 159.207 208.923,159.907 207.746,160.543 206.684 C 162.255 203.822,162.226 203.773,156.923 200.512 C 153.644 198.495,153.023 198.346,151.970 199.322 M242.743 200.153 C 240.517 201.264,236.222 204.033,235.808 204.624 C 235.240 205.435,235.294 205.629,236.698 207.770 C 237.402 208.843,238.558 210.720,239.267 211.941 C 240.607 214.247,241.053 214.648,241.780 214.199 C 242.017 214.053,242.750 213.633,243.409 213.266 C 244.068 212.899,245.266 212.191,246.072 211.692 C 246.877 211.194,247.980 210.560,248.522 210.285 C 250.220 209.422,250.070 208.082,247.866 204.394 C 247.690 204.101,247.194 203.262,246.763 202.530 C 245.157 199.803,244.373 199.340,242.743 200.153 M194.015 213.848 L 191.358 213.981 191.134 215.180 C 190.880 216.536,191.050 228.817,191.328 229.267 C 191.452 229.468,193.598 229.561,198.125 229.561 L 204.742 229.561 205.034 228.722 C 205.468 227.475,205.431 214.892,204.990 214.290 C 204.620 213.783,199.461 213.575,194.015 213.848 " stroke="none" fill="#e5d2ce" fill-rule="evenodd"></path><path id="path3" d="M192.810 54.259 C 192.810 54.443,192.926 54.594,193.068 54.594 C 193.209 54.594,193.261 54.762,193.183 54.966 C 193.104 55.171,193.174 55.422,193.339 55.524 C 193.763 55.786,194.996 55.433,194.795 55.107 C 194.703 54.958,194.762 54.675,194.927 54.477 C 195.169 54.185,194.997 54.098,194.018 54.020 C 193.174 53.953,192.810 54.025,192.810 54.259 M156.059 66.058 C 153.281 67.747,151.395 69.217,151.988 69.233 C 152.785 69.253,158.599 65.479,158.273 65.153 C 158.010 64.890,157.917 64.928,156.059 66.058 M243.941 68.715 C 243.941 69.305,245.044 70.573,245.557 70.573 C 246.266 70.573,246.202 70.263,245.362 69.637 C 244.972 69.346,244.492 68.949,244.297 68.756 C 244.049 68.511,243.941 68.499,243.941 68.715 M246.780 71.285 C 246.591 71.473,248.375 73.236,248.754 73.236 C 248.890 73.236,249.001 73.415,249.001 73.635 C 249.001 73.855,249.177 74.035,249.392 74.035 C 249.615 74.035,249.723 74.193,249.643 74.400 C 249.489 74.801,250.755 74.696,251.008 74.286 C 251.156 74.046,249.514 72.703,249.071 72.703 C 248.918 72.703,248.733 72.553,248.660 72.370 C 248.487 71.934,246.993 71.072,246.780 71.285 M200.266 96.852 C 193.763 97.149,183.057 100.665,180.559 103.325 C 180.486 103.403,179.893 103.813,179.242 104.235 C 176.000 106.338,171.468 111.113,169.295 114.714 C 168.330 116.312,167.605 116.522,166.759 115.446 C 166.471 115.080,166.072 114.776,165.874 114.770 C 165.675 114.765,164.647 114.016,163.589 113.106 C 149.003 100.562,145.458 98.259,140.746 98.271 C 135.598 98.283,135.543 105.626,140.662 109.500 C 144.304 112.256,149.884 115.248,154.727 117.041 C 156.822 117.816,158.487 118.526,160.060 119.316 C 160.577 119.576,161.476 119.922,162.058 120.087 C 162.841 120.308,163.388 120.739,164.162 121.746 L 165.208 123.107 164.882 124.603 C 162.717 134.548,163.692 143.524,167.817 151.619 C 168.476 152.911,173.369 159.745,173.655 159.772 C 173.739 159.780,174.594 160.536,175.555 161.451 C 178.780 164.526,181.070 166.187,183.489 167.209 C 184.294 167.549,185.433 168.099,186.019 168.432 C 188.312 169.733,192.158 170.785,198.167 171.753 C 205.725 172.972,218.706 169.535,223.480 165.053 C 223.678 164.866,224.617 164.115,225.566 163.382 C 234.511 156.476,239.526 146.052,239.531 134.354 C 239.533 129.142,239.441 128.282,238.439 124.102 C 234.570 107.955,217.891 96.049,200.266 96.852 M116.583 98.269 C 117.146 98.793,117.978 98.992,117.974 98.602 C 117.972 98.384,116.700 97.736,116.275 97.736 C 116.130 97.736,116.269 97.976,116.583 98.269 M207.457 98.256 C 208.555 98.393,210.173 98.700,211.052 98.940 C 211.931 99.180,212.911 99.439,213.231 99.516 C 213.551 99.593,213.877 99.823,213.955 100.028 C 214.148 100.531,212.185 100.536,211.375 100.034 C 211.051 99.833,210.067 99.662,209.188 99.653 L 207.590 99.638 208.788 100.137 C 209.447 100.411,210.309 100.643,210.703 100.651 C 211.097 100.659,211.488 100.776,211.572 100.912 C 211.655 101.047,212.079 101.235,212.513 101.331 C 212.947 101.426,213.935 101.853,214.707 102.279 C 215.480 102.704,216.377 103.055,216.702 103.058 C 217.026 103.060,217.412 103.288,217.559 103.563 C 217.707 103.839,218.290 104.249,218.855 104.475 C 219.420 104.701,220.532 105.446,221.326 106.132 C 222.120 106.817,223.009 107.493,223.302 107.634 C 223.595 107.775,224.134 108.294,224.501 108.788 C 224.867 109.281,225.385 109.744,225.652 109.816 C 225.919 109.888,226.200 110.185,226.276 110.475 C 226.352 110.765,226.642 111.062,226.921 111.135 C 227.199 111.208,227.511 111.486,227.614 111.753 C 227.716 112.020,228.142 112.526,228.559 112.877 C 228.976 113.228,229.553 113.950,229.841 114.481 C 230.129 115.012,230.483 115.626,230.627 115.846 C 231.802 117.634,233.289 120.283,233.289 120.586 C 233.289 120.790,233.458 121.275,233.666 121.663 C 234.041 122.368,234.820 124.461,235.365 126.232 C 236.855 131.068,236.788 140.165,235.236 143.704 C 234.986 144.274,234.750 145.035,234.713 145.395 C 234.144 150.817,225.834 160.675,218.109 165.091 C 209.911 169.778,197.142 170.733,189.214 167.254 C 188.921 167.125,187.979 166.711,187.120 166.334 C 174.924 160.975,167.770 149.537,166.951 134.088 C 166.764 130.557,166.518 128.164,166.283 127.597 C 165.841 126.528,165.772 122.089,166.194 121.828 C 166.472 121.656,165.059 120.749,163.249 119.938 C 162.736 119.708,161.718 119.248,160.985 118.917 C 160.253 118.585,158.216 117.745,156.458 117.050 C 146.318 113.041,137.840 107.491,141.689 107.382 C 142.953 107.346,143.687 106.703,144.612 104.824 C 145.823 102.364,146.309 101.910,147.502 102.123 C 149.131 102.414,153.488 105.489,159.011 110.245 C 163.217 113.867,164.850 115.120,166.716 116.156 C 168.784 117.305,168.967 117.284,169.656 115.813 C 169.990 115.098,170.338 114.514,170.428 114.514 C 170.517 114.514,170.815 114.125,171.089 113.648 C 173.855 108.843,182.814 101.891,188.513 100.128 C 188.899 100.008,190.233 99.591,191.478 99.202 C 195.876 97.824,201.363 97.499,207.457 98.256 M139.825 100.451 C 139.393 101.600,139.147 102.232,138.781 103.142 C 138.617 103.551,138.468 104.151,138.451 104.473 C 138.427 104.924,138.392 104.952,138.298 104.594 C 138.231 104.338,138.066 104.128,137.930 104.128 C 137.155 104.128,137.699 101.054,138.652 100.048 C 139.794 98.843,140.358 99.037,139.825 100.451 M268.069 99.954 C 267.779 101.499,269.031 107.755,269.893 109.071 C 270.652 110.229,272.540 109.969,274.714 108.408 C 275.340 107.958,275.910 107.590,275.979 107.590 C 276.570 107.590,280.426 104.950,280.426 104.546 C 280.426 104.046,276.956 105.228,274.213 106.663 C 273.798 106.880,273.299 107.057,273.104 107.057 C 272.736 107.057,270.573 103.541,270.573 102.943 C 270.573 102.757,270.273 102.163,269.907 101.623 C 269.541 101.084,269.241 100.459,269.241 100.235 C 269.241 99.860,268.641 99.068,268.358 99.068 C 268.290 99.068,268.160 99.467,268.069 99.954 M119.840 100.000 C 120.023 100.220,120.352 100.399,120.571 100.399 C 120.896 100.399,120.909 100.325,120.639 100.000 C 120.457 99.780,120.128 99.601,119.908 99.601 C 119.583 99.601,119.571 99.675,119.840 100.000 M215.446 100.799 C 215.446 101.019,215.341 101.198,215.212 101.198 C 215.084 101.198,214.829 101.019,214.647 100.799 C 214.370 100.465,214.409 100.399,214.881 100.399 C 215.206 100.399,215.446 100.569,215.446 100.799 M121.704 101.058 C 121.704 101.330,123.334 102.009,123.596 101.847 C 123.753 101.750,123.563 101.513,123.158 101.304 C 122.453 100.938,121.704 100.811,121.704 101.058 M217.510 101.648 C 217.254 101.715,216.834 101.715,216.578 101.648 C 216.322 101.581,216.531 101.526,217.044 101.526 C 217.557 101.526,217.766 101.581,217.510 101.648 M246.750 118.488 C 246.667 118.624,246.000 118.933,245.270 119.175 C 244.539 119.418,243.941 119.714,243.941 119.832 C 243.941 120.026,243.388 120.164,241.278 120.492 C 240.912 120.549,240.459 120.606,240.271 120.618 C 239.773 120.649,239.570 121.384,239.937 121.826 C 240.210 122.155,240.389 122.140,241.232 121.722 C 244.150 120.275,245.158 119.840,245.592 119.840 C 245.856 119.840,246.072 119.740,246.072 119.617 C 246.072 119.493,246.581 119.233,247.204 119.038 C 248.768 118.547,249.024 118.242,247.872 118.242 C 247.339 118.242,246.834 118.353,246.750 118.488 M229.561 118.872 C 229.561 119.112,229.651 119.308,229.762 119.308 C 229.965 119.308,230.251 119.880,231.027 121.838 C 231.259 122.423,231.555 123.142,231.686 123.435 C 232.394 125.028,233.638 129.376,233.953 131.358 C 234.243 133.182,234.710 132.516,234.513 130.559 C 234.334 128.772,234.273 128.499,233.426 125.699 C 232.999 124.289,231.236 120.381,230.902 120.107 C 230.813 120.033,230.475 119.628,230.151 119.205 C 229.740 118.671,229.561 118.569,229.561 118.872 M166.977 122.096 C 166.977 122.165,167.617 122.514,168.398 122.871 C 169.180 123.229,171.343 124.264,173.206 125.173 C 175.069 126.081,176.648 126.769,176.716 126.702 C 176.932 126.485,175.444 125.166,174.983 125.166 C 174.739 125.166,174.066 124.821,173.488 124.399 C 172.910 123.977,172.017 123.542,171.505 123.433 C 170.992 123.323,169.928 122.949,169.141 122.602 C 167.788 122.005,166.977 121.816,166.977 122.096 M178.569 122.758 C 178.483 122.898,178.745 123.222,179.153 123.479 C 179.560 123.735,180.240 124.227,180.664 124.571 C 181.619 125.346,182.180 125.007,181.634 123.985 C 181.084 122.957,178.969 122.110,178.569 122.758 M174.434 127.756 C 174.434 127.887,174.604 128.227,174.812 128.511 C 175.258 129.120,175.740 128.804,175.338 128.166 C 175.023 127.667,174.434 127.400,174.434 127.756 M242.145 133.822 C 242.141 136.663,242.192 137.236,242.361 136.231 C 242.482 135.505,242.484 133.827,242.366 132.502 C 242.151 130.098,242.150 130.100,242.145 133.822 M161.465 141.145 C 161.465 141.951,161.515 142.280,161.576 141.877 C 161.637 141.475,161.637 140.816,161.576 140.413 C 161.515 140.010,161.465 140.340,161.465 141.145 M105.459 142.409 C 102.667 142.515,102.030 142.678,102.180 143.253 C 102.252 143.525,102.180 143.829,102.021 143.927 C 100.705 144.740,102.299 146.322,104.179 146.069 C 106.133 145.806,106.347 145.581,105.715 144.454 L 105.202 143.542 106.329 143.527 C 113.497 143.434,116.740 143.160,116.571 142.661 C 116.469 142.358,110.429 142.221,105.459 142.409 M162.014 145.721 C 162.108 146.626,162.365 147.640,162.584 147.975 C 162.824 148.340,162.971 149.145,162.954 149.991 C 162.928 151.288,162.903 151.341,162.637 150.666 C 162.278 149.758,161.994 149.739,161.603 150.599 C 161.436 150.965,161.199 151.265,161.076 151.265 C 160.953 151.265,160.848 151.714,160.843 152.264 C 160.838 152.813,160.662 153.562,160.453 153.928 C 160.243 154.294,160.064 155.013,160.053 155.526 C 160.043 156.039,159.863 156.758,159.654 157.124 C 159.444 157.490,159.269 158.095,159.264 158.469 C 159.259 158.842,159.144 159.262,159.009 159.401 C 158.874 159.540,158.569 160.602,158.332 161.762 C 158.094 162.921,157.851 163.949,157.790 164.047 C 157.382 164.708,157.608 171.970,158.064 172.836 C 158.334 173.349,158.644 174.308,158.754 174.967 C 159.042 176.696,160.159 179.767,160.889 180.837 C 162.060 182.552,165.053 186.013,166.218 187.001 C 169.423 189.718,170.686 190.679,171.052 190.679 C 171.273 190.679,171.956 191.099,172.570 191.611 C 173.184 192.124,173.890 192.543,174.140 192.543 C 174.390 192.543,174.708 192.646,174.847 192.772 C 174.986 192.898,175.759 193.215,176.565 193.475 C 177.370 193.736,178.628 194.165,179.361 194.428 C 181.695 195.269,183.546 195.542,185.766 195.372 C 189.936 195.052,190.831 194.896,192.170 194.257 C 192.917 193.900,193.779 193.609,194.085 193.609 C 194.392 193.609,194.716 193.489,194.807 193.342 C 194.897 193.196,195.162 193.076,195.394 193.076 C 195.627 193.076,196.309 192.675,196.910 192.185 C 197.511 191.695,198.302 191.138,198.668 190.947 C 201.479 189.480,206.545 184.859,209.380 181.177 C 210.214 180.093,211.221 179.125,212.142 178.521 C 212.495 178.290,212.933 177.789,213.116 177.407 C 213.299 177.026,213.723 176.577,214.058 176.410 C 214.393 176.243,214.940 175.850,215.273 175.536 C 215.607 175.223,216.086 174.967,216.337 174.967 C 216.589 174.967,216.863 174.787,216.948 174.567 C 217.032 174.348,217.275 174.168,217.488 174.168 C 217.709 174.168,217.794 174.038,217.687 173.865 C 217.473 173.519,219.045 172.037,219.626 172.037 C 220.322 172.037,229.555 163.954,229.230 163.628 C 229.144 163.542,228.428 163.998,227.640 164.640 C 223.490 168.020,218.018 170.969,213.316 172.360 C 205.385 174.705,199.729 174.987,192.410 173.400 C 181.003 170.928,170.234 162.409,165.437 152.064 C 163.427 147.729,162.983 146.667,162.983 146.202 C 162.983 145.928,162.863 145.630,162.716 145.539 C 162.570 145.449,162.450 145.082,162.450 144.725 C 162.450 144.367,162.313 144.075,162.146 144.075 C 161.932 144.075,161.893 144.564,162.014 145.721 M277.111 147.916 C 276.799 150.415,277.876 151.150,281.293 150.767 C 282.500 150.632,284.352 150.520,285.407 150.519 C 287.917 150.515,289.101 150.109,290.479 148.782 C 292.106 147.216,291.999 147.009,289.547 146.979 C 288.412 146.965,286.944 146.925,286.285 146.889 C 285.626 146.853,283.335 146.729,281.193 146.614 L 277.300 146.403 277.111 147.916 M172.058 148.938 C 172.047 149.343,172.151 149.882,172.289 150.137 C 172.427 150.391,173.080 151.738,173.739 153.129 C 175.765 157.406,182.105 163.092,187.328 165.319 C 193.294 167.861,197.003 168.549,201.127 167.879 C 202.338 167.682,203.366 167.518,203.411 167.515 C 203.456 167.512,203.419 167.390,203.329 167.244 C 203.238 167.096,202.011 166.975,200.583 166.972 C 192.658 166.956,185.155 163.694,178.595 157.412 C 176.258 155.174,173.005 150.672,172.229 148.602 C 172.143 148.373,172.070 148.516,172.058 148.938 M161.731 152.506 C 161.656 152.702,161.487 152.863,161.356 152.863 C 161.078 152.863,161.035 151.970,161.300 151.705 C 161.557 151.448,161.896 152.077,161.731 152.506 M116.911 175.338 C 116.911 175.901,117.483 177.097,117.752 177.097 C 117.875 177.097,117.976 176.858,117.976 176.565 C 117.976 176.272,117.856 176.032,117.710 176.032 C 117.563 176.032,117.443 175.859,117.443 175.648 C 117.443 175.437,117.324 175.190,117.177 175.100 C 117.031 175.009,116.911 175.116,116.911 175.338 M118.351 178.429 C 118.452 179.088,118.648 179.667,118.787 179.716 C 118.927 179.765,119.041 180.102,119.041 180.466 C 119.041 182.523,120.756 182.875,124.171 181.519 C 127.253 180.295,130.395 177.896,128.915 177.896 C 128.271 177.896,122.702 180.781,122.424 181.259 C 122.043 181.912,121.215 181.647,120.453 180.626 C 120.043 180.077,119.617 179.587,119.507 179.538 C 119.397 179.490,119.308 179.269,119.308 179.048 C 119.308 178.827,119.051 178.327,118.738 177.938 L 118.169 177.230 118.351 178.429 M264.378 181.389 C 264.459 181.699,265.077 182.292,265.751 182.708 C 266.426 183.124,267.167 183.649,267.399 183.876 C 267.631 184.102,267.961 184.288,268.132 184.288 C 268.302 184.288,268.442 184.463,268.442 184.678 C 268.442 185.277,270.031 186.951,270.600 186.951 C 270.878 186.951,271.105 186.833,271.105 186.689 C 271.105 186.546,271.397 186.355,271.753 186.266 C 272.157 186.164,272.349 185.966,272.262 185.739 C 272.118 185.365,268.078 182.690,267.657 182.690 C 267.527 182.690,267.381 182.600,267.332 182.490 C 266.900 181.518,264.143 180.490,264.378 181.389 M159.851 208.252 C 159.669 208.543,159.521 208.962,159.521 209.184 C 159.521 209.406,159.415 209.587,159.285 209.587 C 159.156 209.587,158.981 209.797,158.896 210.053 C 158.811 210.310,158.543 210.789,158.300 211.119 C 158.001 211.524,157.962 211.718,158.182 211.718 C 158.360 211.718,158.568 211.478,158.645 211.185 C 158.721 210.892,158.890 210.652,159.019 210.652 C 159.148 210.652,159.254 210.514,159.254 210.345 C 159.254 210.175,159.554 209.644,159.920 209.164 C 160.584 208.294,160.767 207.723,160.384 207.723 C 160.272 207.723,160.033 207.961,159.851 208.252 M147.483 209.374 C 147.659 209.550,147.803 209.905,147.803 210.164 C 147.803 210.701,148.340 211.037,149.645 211.318 C 150.145 211.425,150.802 211.744,151.104 212.025 C 151.407 212.307,151.926 212.606,152.258 212.689 C 152.591 212.772,152.863 212.948,152.863 213.078 C 152.863 213.209,153.055 213.316,153.291 213.316 C 153.562 213.316,153.663 213.462,153.565 213.715 C 153.447 214.023,153.624 214.115,154.336 214.115 C 155.408 214.115,155.555 213.635,154.660 213.056 C 153.012 211.989,151.178 210.919,150.999 210.919 C 150.888 210.919,150.657 210.749,150.485 210.542 C 150.136 210.121,147.986 209.055,147.486 209.055 C 147.235 209.055,147.235 209.126,147.483 209.374 M237.017 209.684 C 237.017 209.781,237.124 210.069,237.255 210.323 C 237.386 210.578,237.626 211.085,237.790 211.451 C 237.953 211.818,238.318 212.497,238.600 212.962 C 238.882 213.426,239.103 214.158,239.091 214.588 C 239.027 216.859,242.778 215.947,246.606 212.760 C 248.936 210.821,248.663 210.171,246.191 211.772 C 245.466 212.241,244.274 212.995,243.542 213.448 C 242.810 213.901,241.900 214.477,241.520 214.729 L 240.829 215.186 239.989 213.834 C 239.526 213.090,239.148 212.379,239.148 212.255 C 239.148 212.130,239.047 211.988,238.925 211.940 C 238.802 211.891,238.323 211.324,237.860 210.679 C 237.396 210.035,237.017 209.587,237.017 209.684 M190.191 230.518 C 190.126 234.841,190.700 235.221,195.981 234.357 C 199.588 233.766,200.834 233.287,201.371 232.283 C 201.559 231.932,202.177 231.277,202.745 230.827 C 204.222 229.657,203.867 229.582,197.325 229.683 C 190.399 229.789,190.473 229.801,190.339 228.537 C 190.282 228.001,190.216 228.893,190.191 230.518 " stroke="none" fill="#9e111b" fill-rule="evenodd"></path><path id="path4" d="M193.986 36.242 C 193.486 36.795,193.487 36.798,194.276 36.708 C 194.773 36.652,195.102 36.444,195.157 36.152 C 195.279 35.510,194.602 35.562,193.986 36.242 M196.061 36.254 C 196.158 36.543,197.348 36.633,201.878 36.690 C 206.323 36.746,207.504 36.691,207.253 36.441 C 206.754 35.942,195.897 35.760,196.061 36.254 M192.437 37.975 C 192.348 38.207,192.327 38.481,192.390 38.583 C 192.454 38.686,192.395 39.604,192.259 40.623 C 192.124 41.643,191.893 44.441,191.747 46.842 C 191.600 49.243,191.362 51.350,191.217 51.525 C 190.796 52.033,190.655 55.975,191.032 56.733 C 191.609 57.896,193.674 58.788,195.840 58.811 C 199.298 58.847,201.320 58.036,204.598 55.297 L 205.867 54.237 205.131 53.751 C 204.726 53.484,204.514 53.255,204.660 53.241 C 204.807 53.228,204.627 53.137,204.261 53.040 C 203.895 52.942,201.295 52.863,198.483 52.863 C 193.595 52.863,193.364 52.839,193.227 52.330 C 193.148 52.037,193.082 48.659,193.080 44.823 C 193.076 38.524,192.909 36.745,192.437 37.975 M207.625 38.948 C 207.536 39.278,207.461 41.405,207.458 43.675 C 207.455 45.945,207.330 48.868,207.181 50.170 C 206.901 52.618,206.966 53.060,207.528 52.499 C 207.844 52.183,208.214 38.349,207.906 38.349 C 207.840 38.349,207.713 38.619,207.625 38.948 M152.597 54.012 C 152.597 54.131,152.160 54.437,151.625 54.692 C 150.987 54.996,150.744 55.245,150.917 55.418 C 151.090 55.590,151.660 55.358,152.581 54.738 C 153.820 53.904,153.902 53.795,153.289 53.795 C 152.908 53.795,152.597 53.893,152.597 54.012 M194.927 54.477 C 194.762 54.675,194.703 54.958,194.795 55.107 C 194.996 55.433,193.763 55.786,193.339 55.524 C 193.174 55.422,193.104 55.171,193.183 54.966 C 193.261 54.762,193.209 54.594,193.068 54.594 C 192.926 54.594,192.810 54.443,192.810 54.259 C 192.810 54.025,193.174 53.953,194.018 54.020 C 194.997 54.098,195.169 54.185,194.927 54.477 M155.270 54.506 C 155.265 54.678,155.799 55.623,156.458 56.606 C 157.117 57.589,157.656 58.497,157.656 58.624 C 157.656 58.751,157.776 58.855,157.923 58.855 C 158.305 58.855,158.271 58.736,157.462 57.238 C 156.642 55.721,155.287 54.031,155.270 54.506 M148.850 56.551 C 146.838 57.690,145.223 58.772,145.002 59.128 C 144.594 59.789,145.179 59.668,146.165 58.887 C 146.742 58.430,147.406 58.056,147.642 58.056 C 147.877 58.056,148.069 57.962,148.069 57.847 C 148.069 57.732,148.459 57.409,148.935 57.130 C 149.886 56.571,150.584 55.953,150.431 55.806 C 150.377 55.754,149.666 56.089,148.850 56.551 M249.065 58.515 C 248.260 59.213,244.740 63.395,244.740 63.652 C 244.740 63.774,244.431 64.242,244.052 64.692 C 243.673 65.142,243.404 65.627,243.453 65.769 C 243.589 66.164,243.958 65.811,245.533 63.782 C 246.328 62.756,247.263 61.618,247.610 61.252 C 249.223 59.550,250.380 57.374,249.065 58.515 M252.510 59.454 C 253.174 60.077,254.064 60.821,254.488 61.109 C 254.913 61.397,256.128 62.485,257.190 63.526 C 258.380 64.692,259.121 65.251,259.121 64.984 C 259.121 64.417,258.718 63.921,257.244 62.675 C 254.811 60.619,252.907 58.980,252.575 58.655 C 252.388 58.472,252.025 58.322,251.769 58.322 C 251.441 58.322,251.661 58.658,252.510 59.454 M158.189 59.399 C 158.189 59.551,158.429 59.933,158.722 60.248 C 159.290 60.858,159.441 60.500,158.979 59.636 C 158.685 59.087,158.189 58.938,158.189 59.399 M144.775 62.987 C 144.915 64.983,145.093 65.820,145.516 66.466 C 146.319 67.694,147.037 68.964,147.575 70.109 C 148.234 71.512,149.223 71.854,150.461 71.106 C 150.977 70.794,151.997 70.246,152.730 69.887 C 154.679 68.931,155.873 68.203,156.325 67.693 C 156.545 67.446,157.084 67.016,157.523 66.737 C 159.338 65.587,160.636 63.915,159.714 63.915 C 159.331 63.915,155.279 66.176,154.863 66.621 C 154.522 66.986,155.625 66.424,156.909 65.578 C 157.450 65.221,158.026 65.012,158.189 65.113 C 158.718 65.440,152.648 69.391,151.967 69.164 C 151.801 69.109,152.170 68.714,152.787 68.287 C 153.403 67.860,153.912 67.414,153.918 67.296 C 153.924 67.178,153.260 67.560,152.443 68.145 C 150.535 69.511,150.608 69.558,147.903 65.285 C 144.378 59.718,144.554 59.848,144.775 62.987 M159.521 61.485 C 159.521 61.796,159.633 62.051,159.771 62.051 C 160.233 62.051,160.318 61.582,159.917 61.249 C 159.587 60.975,159.521 61.015,159.521 61.485 M257.518 67.465 C 257.008 67.929,255.872 69.200,254.993 70.288 C 254.115 71.377,253.014 72.673,252.548 73.169 L 251.701 74.070 249.619 72.432 C 248.474 71.532,247.124 70.475,246.620 70.084 C 246.117 69.694,245.230 68.979,244.649 68.496 C 243.389 67.447,243.233 67.556,242.998 69.661 L 242.818 71.280 245.254 73.523 C 248.346 76.368,250.486 77.197,251.037 75.763 C 251.111 75.569,251.625 75.111,252.178 74.745 C 253.326 73.985,255.203 72.062,256.511 70.306 C 258.899 67.099,259.365 65.784,257.518 67.465 M245.362 69.637 C 246.202 70.263,246.266 70.573,245.557 70.573 C 245.274 70.573,244.795 70.225,244.492 69.799 C 243.862 68.915,243.727 68.192,244.297 68.756 C 244.492 68.949,244.972 69.346,245.362 69.637 M248.660 72.370 C 248.733 72.553,248.918 72.703,249.071 72.703 C 249.514 72.703,251.156 74.046,251.008 74.286 C 250.755 74.696,249.489 74.801,249.643 74.400 C 249.723 74.193,249.615 74.035,249.392 74.035 C 249.177 74.035,249.001 73.855,249.001 73.635 C 249.001 73.415,248.890 73.236,248.754 73.236 C 248.375 73.236,246.591 71.473,246.780 71.285 C 246.993 71.072,248.487 71.934,248.660 72.370 M121.800 86.951 C 122.019 87.170,122.313 87.350,122.452 87.350 C 122.591 87.350,122.854 87.530,123.036 87.750 C 123.218 87.969,123.538 88.149,123.745 88.149 C 123.953 88.149,124.381 88.389,124.695 88.682 C 125.215 89.166,125.965 89.404,125.965 89.085 C 125.965 88.931,124.111 87.675,122.932 87.030 C 121.851 86.439,121.245 86.396,121.800 86.951 M119.308 87.975 C 119.308 88.172,119.075 88.544,118.790 88.801 C 118.505 89.059,118.192 89.637,118.093 90.085 C 117.995 90.534,117.807 91.031,117.675 91.189 C 117.105 91.877,116.112 93.522,116.112 93.779 C 116.112 93.933,115.880 94.385,115.597 94.783 C 115.172 95.379,115.090 95.906,115.131 97.774 L 115.180 100.041 116.327 100.906 C 116.958 101.382,117.917 101.947,118.457 102.162 C 118.998 102.378,119.680 102.665,119.973 102.801 C 120.768 103.170,122.859 103.853,123.206 103.858 C 123.373 103.860,123.962 103.459,124.514 102.968 L 125.519 102.074 123.279 100.979 C 119.642 99.202,115.725 96.838,115.635 96.366 C 115.589 96.124,115.977 95.261,116.497 94.448 C 117.018 93.634,117.443 92.853,117.443 92.711 C 117.443 92.570,117.533 92.415,117.643 92.366 C 117.917 92.244,119.154 89.703,119.167 89.236 C 119.172 89.028,119.326 88.809,119.508 88.748 C 119.902 88.617,119.960 87.617,119.574 87.617 C 119.427 87.617,119.308 87.778,119.308 87.975 M126.872 89.973 C 127.151 90.288,127.661 90.546,128.004 90.546 C 128.347 90.546,128.628 90.666,128.628 90.812 C 128.628 90.959,128.896 91.079,129.223 91.079 C 129.997 91.079,128.307 89.874,127.131 89.588 L 126.365 89.401 126.872 89.973 M276.293 92.211 C 275.856 92.344,275.329 92.507,275.122 92.573 C 274.271 92.845,275.270 93.200,276.165 92.943 C 277.309 92.615,278.732 93.077,278.932 93.843 C 279.010 94.141,279.147 94.311,279.237 94.221 C 280.025 93.433,277.636 91.803,276.293 92.211 M129.825 94.208 C 129.537 94.757,128.911 95.830,128.433 96.592 C 127.955 97.354,127.563 98.049,127.563 98.136 C 127.563 98.223,127.144 98.950,126.631 99.752 C 125.726 101.167,125.464 101.997,125.924 101.997 C 126.446 101.997,128.393 99.099,129.145 97.204 C 129.349 96.691,129.654 96.092,129.823 95.872 C 129.992 95.652,130.322 94.963,130.556 94.341 C 131.106 92.881,130.570 92.784,129.825 94.208 M272.570 93.534 C 272.130 93.690,271.464 94.032,271.089 94.295 C 270.714 94.557,270.085 94.852,269.691 94.951 C 269.297 95.050,268.975 95.238,268.975 95.368 C 268.975 95.818,270.175 95.598,271.332 94.937 C 271.970 94.572,272.630 94.274,272.799 94.274 C 272.969 94.274,273.257 94.035,273.440 93.742 C 273.811 93.148,273.720 93.127,272.570 93.534 M195.817 94.592 C 193.446 94.936,192.810 95.096,192.810 95.352 C 192.810 95.685,194.414 95.676,195.821 95.335 C 196.435 95.186,197.956 94.967,199.201 94.849 L 201.465 94.634 199.279 94.521 C 198.077 94.458,196.520 94.491,195.817 94.592 M205.824 94.828 C 207.050 94.946,208.416 95.170,208.860 95.324 C 209.818 95.659,211.718 95.699,211.718 95.385 C 211.718 94.952,208.968 94.541,206.305 94.577 L 203.595 94.613 205.824 94.828 M279.486 94.865 C 279.399 95.093,279.586 95.742,279.902 96.308 L 280.477 97.337 280.339 96.173 C 280.186 94.872,279.743 94.194,279.486 94.865 M212.250 95.813 C 212.250 96.022,215.044 96.937,215.681 96.937 C 215.869 96.937,215.975 96.793,215.916 96.617 C 215.738 96.081,212.250 95.316,212.250 95.813 M188.682 96.405 C 188.107 96.698,187.453 96.942,187.227 96.949 C 187.002 96.955,186.398 97.189,185.885 97.470 L 184.953 97.980 185.699 97.992 C 186.108 97.998,186.947 97.752,187.563 97.445 C 188.178 97.139,189.101 96.826,189.614 96.751 C 190.126 96.675,190.846 96.452,191.212 96.254 C 192.373 95.625,189.923 95.772,188.682 96.405 M200.070 96.862 C 200.475 96.923,201.074 96.922,201.402 96.859 C 201.729 96.795,201.398 96.745,200.666 96.747 C 199.933 96.749,199.665 96.801,200.070 96.862 M267.590 96.810 C 267.487 96.915,267.466 97.316,267.542 97.701 C 267.619 98.088,267.495 98.760,267.265 99.201 C 266.045 101.536,267.745 109.247,269.792 110.665 C 271.919 112.140,277.638 109.023,281.967 104.031 L 282.575 103.329 281.789 103.329 C 281.046 103.329,280.319 103.589,277.497 104.865 C 273.206 106.805,273.324 106.770,272.698 106.332 C 272.140 105.940,272.128 105.947,272.418 106.490 C 272.776 107.159,273.188 107.199,274.213 106.663 C 276.956 105.228,280.426 104.046,280.426 104.546 C 280.426 104.950,276.570 107.590,275.979 107.590 C 275.910 107.590,275.340 107.958,274.714 108.408 C 272.282 110.154,270.504 110.238,269.722 108.643 C 269.008 107.184,267.934 102.078,268.034 100.612 C 268.123 99.293,268.412 98.646,268.634 99.268 C 268.699 99.451,268.867 99.601,269.006 99.601 C 269.305 99.601,268.773 98.522,268.284 98.136 C 268.099 97.989,267.909 97.588,267.862 97.245 C 267.815 96.902,267.692 96.706,267.590 96.810 M216.245 97.146 C 216.245 97.260,216.814 97.517,217.510 97.717 C 218.206 97.917,218.922 98.195,219.102 98.335 C 219.282 98.476,220.061 98.923,220.833 99.329 C 223.842 100.912,224.501 101.305,224.501 101.514 C 224.501 101.633,224.652 101.731,224.836 101.731 C 225.021 101.731,225.470 102.003,225.835 102.335 C 226.200 102.667,227.091 103.416,227.815 103.999 C 230.560 106.209,234.996 111.382,236.091 113.648 C 236.531 114.557,237.264 114.780,237.778 114.161 C 237.939 113.967,238.732 113.473,239.541 113.064 C 240.350 112.655,241.012 112.214,241.012 112.085 C 241.012 111.956,241.235 111.851,241.507 111.851 C 241.780 111.851,242.444 111.551,242.984 111.185 C 243.524 110.819,244.151 110.519,244.378 110.519 C 244.605 110.519,245.109 110.299,245.498 110.030 C 245.887 109.761,246.774 109.311,247.469 109.031 C 248.164 108.751,248.733 108.432,248.734 108.322 C 248.736 107.950,247.541 108.159,246.738 108.671 C 246.298 108.951,245.639 109.308,245.273 109.464 C 244.664 109.725,239.567 112.272,237.889 113.155 C 237.172 113.532,235.435 112.107,235.423 111.132 C 235.421 110.956,235.252 110.716,235.047 110.599 C 234.842 110.482,234.119 109.646,233.441 108.740 C 231.958 106.764,228.104 103.152,225.936 101.709 C 225.073 101.135,224.128 100.474,223.835 100.241 C 223.542 100.007,223.004 99.678,222.640 99.509 C 222.276 99.340,221.767 98.991,221.508 98.735 C 221.250 98.479,220.828 98.269,220.570 98.269 C 220.313 98.269,219.539 97.969,218.852 97.603 C 217.646 96.961,216.245 96.715,216.245 97.146 M139.680 97.735 C 139.387 97.861,138.824 98.034,138.427 98.119 C 134.144 99.036,136.370 107.549,141.797 111.002 C 142.391 111.380,143.116 111.894,143.409 112.145 C 143.958 112.616,147.515 114.450,150.333 115.714 C 154.057 117.386,154.942 117.792,156.469 118.530 C 157.353 118.958,158.229 119.308,158.415 119.308 C 158.600 119.308,159.289 119.607,159.945 119.973 C 160.601 120.340,161.294 120.639,161.486 120.639 C 162.408 120.639,163.113 122.533,162.441 123.205 C 162.042 123.604,161.794 126.498,162.159 126.498 C 162.319 126.498,162.450 126.205,162.450 125.848 C 162.450 125.490,162.570 125.124,162.716 125.033 C 162.863 124.943,162.983 124.404,162.983 123.837 C 162.983 122.851,163.603 122.243,164.392 122.454 C 164.713 122.540,164.166 121.661,163.388 120.839 C 163.007 120.436,162.492 120.107,162.243 120.107 C 161.995 120.107,161.131 119.796,160.323 119.417 C 157.817 118.240,156.793 117.805,154.727 117.041 C 149.884 115.248,144.304 112.256,140.662 109.500 C 135.543 105.626,135.598 98.283,140.746 98.271 C 145.458 98.259,149.003 100.562,163.589 113.106 C 164.647 114.016,165.673 114.765,165.869 114.770 C 166.066 114.776,166.449 115.050,166.721 115.379 C 167.188 115.945,167.208 115.948,167.080 115.434 C 166.992 115.084,167.332 114.273,168.027 113.170 C 168.623 112.225,169.194 111.274,169.295 111.057 C 169.554 110.500,174.067 105.757,175.127 104.927 C 175.407 104.707,176.308 103.958,177.128 103.262 C 177.948 102.567,178.727 101.997,178.860 101.997 C 178.992 101.997,179.398 101.723,179.763 101.388 C 180.128 101.053,180.812 100.621,181.283 100.427 C 181.754 100.234,182.278 99.909,182.447 99.705 C 182.616 99.501,182.931 99.334,183.146 99.334 C 183.362 99.334,183.843 99.095,184.215 98.802 C 185.304 97.945,184.301 98.163,182.262 99.225 C 181.253 99.751,180.367 100.267,180.294 100.372 C 180.220 100.477,179.767 100.722,179.288 100.916 C 178.808 101.110,178.329 101.402,178.223 101.566 C 178.116 101.730,177.710 102.044,177.320 102.264 C 176.203 102.893,172.085 106.763,170.660 108.522 C 169.948 109.401,169.127 110.364,168.837 110.662 C 168.547 110.960,168.309 111.343,168.309 111.514 C 168.309 111.685,168.150 111.920,167.955 112.037 C 167.761 112.154,167.375 112.640,167.099 113.116 C 166.238 114.598,165.381 114.080,158.844 108.123 C 151.006 100.981,142.656 96.454,139.680 97.735 M280.701 97.770 C 280.682 98.726,282.378 101.731,282.937 101.731 C 283.280 101.731,283.049 101.063,282.423 100.243 C 282.057 99.763,281.758 99.195,281.758 98.982 C 281.758 98.405,280.713 97.206,280.701 97.770 M117.255 98.069 C 117.649 98.252,117.973 98.492,117.974 98.602 C 117.978 98.992,117.146 98.793,116.583 98.269 C 115.932 97.662,116.205 97.581,117.255 98.069 M120.639 100.000 C 120.909 100.325,120.896 100.399,120.571 100.399 C 120.352 100.399,120.023 100.220,119.840 100.000 C 119.571 99.675,119.583 99.601,119.908 99.601 C 120.128 99.601,120.457 99.780,120.639 100.000 M269.262 100.300 C 269.250 100.612,269.440 101.031,269.684 101.232 C 270.080 101.559,270.098 101.541,269.853 101.065 C 269.703 100.772,269.513 100.353,269.431 100.133 C 269.329 99.859,269.276 99.911,269.262 100.300 M123.158 101.304 C 123.563 101.513,123.753 101.750,123.596 101.847 C 123.334 102.009,121.704 101.330,121.704 101.058 C 121.704 100.811,122.453 100.938,123.158 101.304 M251.531 106.525 C 251.441 106.671,251.621 106.791,251.931 106.791 C 252.241 106.791,252.421 106.671,252.330 106.525 C 252.240 106.378,252.060 106.258,251.931 106.258 C 251.802 106.258,251.622 106.378,251.531 106.525 M249.678 107.416 C 248.885 107.996,249.583 108.116,250.599 107.576 C 251.482 107.106,251.495 107.079,250.850 107.068 C 250.475 107.062,249.948 107.219,249.678 107.416 M254.328 107.615 C 254.328 107.776,254.497 108.225,254.704 108.614 C 254.911 109.003,255.331 109.890,255.637 110.586 C 255.944 111.282,256.329 111.851,256.493 111.851 C 256.912 111.851,256.555 110.198,256.055 109.824 C 255.837 109.662,255.659 109.386,255.659 109.212 C 255.659 108.709,254.873 107.324,254.587 107.324 C 254.444 107.324,254.328 107.455,254.328 107.615 M256.160 114.644 C 255.958 114.838,255.253 115.182,254.594 115.408 C 253.935 115.634,252.557 116.137,251.531 116.525 C 250.506 116.913,249.068 117.454,248.336 117.727 C 247.023 118.216,247.017 118.223,247.923 118.233 C 249.026 118.244,248.751 118.552,247.204 119.038 C 246.581 119.233,246.072 119.493,246.072 119.617 C 246.072 119.740,245.856 119.840,245.592 119.840 C 245.158 119.840,244.159 120.271,241.244 121.716 C 240.502 122.084,240.201 122.122,239.949 121.883 C 239.747 121.692,239.774 121.880,240.020 122.370 C 242.672 127.658,242.084 141.450,238.896 148.735 C 236.688 153.781,234.346 157.415,230.929 161.099 C 230.191 161.894,229.660 162.662,229.748 162.805 C 229.837 162.948,229.790 162.991,229.644 162.901 C 229.499 162.811,228.671 163.342,227.806 164.081 C 226.940 164.820,224.951 166.280,223.385 167.327 C 221.819 168.373,220.580 169.270,220.630 169.321 C 220.773 169.463,226.019 165.960,227.635 164.644 C 228.426 163.999,229.144 163.542,229.230 163.628 C 229.555 163.954,220.322 172.037,219.626 172.037 C 219.045 172.037,217.473 173.519,217.687 173.865 C 217.794 174.038,217.709 174.168,217.488 174.168 C 217.275 174.168,217.032 174.348,216.948 174.567 C 216.863 174.787,216.589 174.967,216.337 174.967 C 216.086 174.967,215.607 175.223,215.273 175.536 C 214.940 175.850,214.393 176.243,214.058 176.410 C 213.723 176.577,213.299 177.026,213.116 177.407 C 212.933 177.789,212.495 178.290,212.142 178.521 C 211.221 179.125,210.214 180.093,209.380 181.177 C 206.545 184.859,201.479 189.480,198.668 190.947 C 198.302 191.138,197.511 191.695,196.910 192.185 C 196.309 192.675,195.627 193.076,195.394 193.076 C 195.162 193.076,194.897 193.196,194.807 193.342 C 194.716 193.489,194.392 193.609,194.085 193.609 C 193.779 193.609,192.917 193.900,192.170 194.257 C 189.136 195.706,183.131 195.786,179.361 194.428 C 178.628 194.165,177.370 193.736,176.565 193.475 C 175.759 193.215,174.986 192.898,174.847 192.772 C 174.708 192.646,174.390 192.543,174.140 192.543 C 173.890 192.543,173.184 192.124,172.570 191.611 C 171.956 191.099,171.273 190.679,171.052 190.679 C 170.686 190.679,169.423 189.718,166.218 187.001 C 165.053 186.013,162.060 182.552,160.889 180.837 C 160.159 179.767,159.042 176.696,158.754 174.967 C 158.644 174.308,158.334 173.349,158.064 172.836 C 157.608 171.970,157.382 164.708,157.790 164.047 C 157.851 163.949,158.094 162.921,158.332 161.762 C 158.569 160.602,158.874 159.540,159.009 159.401 C 159.144 159.262,159.259 158.842,159.264 158.469 C 159.269 158.095,159.444 157.490,159.654 157.124 C 159.863 156.758,160.043 156.039,160.053 155.526 C 160.064 155.013,160.243 154.294,160.453 153.928 C 160.662 153.562,160.838 152.813,160.843 152.264 C 160.848 151.714,160.953 151.265,161.076 151.265 C 161.199 151.265,161.436 150.965,161.603 150.599 C 161.994 149.739,162.278 149.758,162.637 150.666 C 162.903 151.341,162.928 151.288,162.954 149.991 C 162.971 149.145,162.824 148.340,162.584 147.975 C 162.068 147.188,161.718 144.075,162.146 144.075 C 162.313 144.075,162.450 144.367,162.450 144.725 C 162.450 145.082,162.570 145.449,162.716 145.539 C 162.863 145.630,162.983 145.921,162.983 146.187 C 162.983 146.758,164.039 149.232,164.210 149.061 C 164.275 148.996,164.103 148.417,163.829 147.774 C 162.077 143.668,161.128 136.261,161.670 130.914 C 161.994 127.715,161.883 126.144,161.396 127.031 C 161.160 127.460,160.711 131.988,160.429 136.797 C 160.289 139.164,160.179 139.743,159.887 139.631 C 159.686 139.554,159.521 139.627,159.521 139.793 C 159.521 139.960,159.348 140.163,159.138 140.244 C 158.927 140.324,157.938 141.232,156.941 142.261 C 154.403 144.877,154.327 144.950,153.554 145.485 C 153.174 145.748,152.863 146.171,152.863 146.424 C 152.863 146.678,152.477 147.301,152.004 147.810 C 150.872 149.030,150.369 149.985,149.685 152.214 C 149.373 153.230,148.762 154.803,148.327 155.709 C 147.892 156.615,147.537 157.537,147.537 157.757 C 147.537 157.977,147.434 158.221,147.308 158.299 C 146.927 158.534,146.713 164.567,147.024 166.312 C 147.181 167.190,147.406 168.808,147.524 169.907 C 147.777 172.262,148.265 174.130,148.785 174.735 C 149.278 175.307,150.352 178.294,150.599 179.779 C 150.832 181.181,151.273 182.107,152.037 182.798 C 152.345 183.077,152.597 183.471,152.597 183.674 C 152.597 184.263,154.236 187.250,154.645 187.407 C 154.850 187.485,155.310 188.126,155.667 188.830 C 156.024 189.535,156.671 190.321,157.105 190.577 C 157.539 190.833,157.829 191.149,157.749 191.277 C 157.555 191.591,158.441 192.548,159.191 192.835 C 159.522 192.962,159.939 193.397,160.118 193.803 C 160.296 194.209,160.619 194.651,160.836 194.785 C 161.053 194.920,161.707 195.552,162.288 196.191 C 162.870 196.830,163.773 197.608,164.296 197.920 C 165.369 198.560,166.086 199.319,166.450 200.200 C 166.631 200.637,166.918 200.799,167.517 200.799 C 168.622 200.799,169.737 201.414,170.108 202.227 C 170.363 202.788,170.590 202.894,171.502 202.881 C 172.105 202.873,172.795 203.043,173.047 203.263 C 173.297 203.481,173.644 203.607,173.817 203.544 C 173.990 203.481,174.529 203.647,175.015 203.912 C 176.131 204.521,183.396 204.612,185.353 204.041 C 186.012 203.849,186.922 203.580,187.375 203.442 C 187.828 203.304,189.061 203.083,190.115 202.951 C 191.170 202.819,192.184 202.584,192.370 202.430 C 192.555 202.276,193.359 201.976,194.156 201.762 C 194.954 201.549,196.325 201.141,197.204 200.857 C 198.083 200.572,199.392 200.252,200.113 200.146 C 200.990 200.017,201.819 199.652,202.615 199.045 C 203.269 198.545,203.964 198.136,204.159 198.136 C 204.986 198.136,207.497 196.674,208.565 195.570 C 209.201 194.914,210.148 194.153,210.671 193.879 C 211.728 193.325,213.582 191.403,213.582 190.861 C 213.582 190.669,213.941 190.168,214.381 189.747 C 214.820 189.326,215.180 188.899,215.180 188.799 C 215.180 188.698,215.569 188.187,216.045 187.663 C 216.521 187.139,217.210 185.903,217.577 184.917 C 218.055 183.630,218.450 183.007,218.979 182.707 C 219.449 182.441,219.813 181.932,219.986 181.300 C 220.134 180.756,220.422 180.217,220.626 180.102 C 221.165 179.799,222.873 177.497,223.303 176.494 C 223.506 176.020,224.517 174.699,225.551 173.559 C 226.584 172.419,227.430 171.366,227.430 171.220 C 227.430 171.074,227.856 170.703,228.377 170.395 C 228.929 170.070,229.268 169.690,229.190 169.486 C 229.108 169.272,229.195 169.189,229.414 169.273 C 229.920 169.467,230.238 168.837,229.794 168.520 C 229.510 168.317,229.531 168.292,229.890 168.407 C 230.247 168.522,230.502 168.230,231.007 167.126 C 231.367 166.339,231.788 165.618,231.942 165.522 C 232.444 165.212,232.241 164.574,231.558 164.314 C 231.192 164.175,230.892 163.951,230.892 163.817 C 230.892 163.458,231.647 163.229,231.834 163.531 C 232.101 163.962,232.546 163.492,232.400 162.934 C 232.207 162.195,233.219 160.586,233.876 160.586 C 234.254 160.586,234.364 160.462,234.250 160.167 C 234.082 159.728,234.703 158.893,234.987 159.177 C 235.322 159.512,236.258 158.340,236.142 157.732 C 236.013 157.057,236.562 156.443,237.034 156.735 C 237.254 156.870,237.289 156.688,237.158 156.092 C 237.048 155.590,237.081 155.260,237.243 155.260 C 237.390 155.260,237.551 155.469,237.601 155.726 C 237.664 156.053,237.836 155.888,238.176 155.171 C 238.475 154.543,238.597 153.892,238.494 153.481 C 238.377 153.015,238.473 152.678,238.810 152.371 C 239.290 151.934,239.970 150.670,240.106 149.965 C 240.144 149.763,240.304 149.469,240.461 149.313 C 240.618 149.156,240.746 148.719,240.746 148.342 C 240.746 147.964,240.903 147.419,241.096 147.130 C 241.530 146.479,242.077 144.621,242.077 143.800 C 242.077 142.734,242.345 143.404,242.548 144.976 C 242.886 147.595,243.880 146.301,243.921 143.190 C 243.934 142.190,244.083 141.498,244.341 141.240 C 244.696 140.885,244.740 140.914,244.740 141.497 C 244.740 141.858,244.917 142.221,245.132 142.304 C 245.670 142.510,246.338 141.779,246.338 140.984 C 246.338 140.623,246.532 140.031,246.769 139.670 C 247.120 139.134,247.138 138.937,246.864 138.607 C 246.671 138.375,246.452 137.010,246.350 135.412 C 246.203 133.114,246.066 132.480,245.573 131.813 C 245.177 131.277,245.003 130.717,245.058 130.149 C 245.129 129.407,245.024 129.241,244.266 128.895 C 243.477 128.534,243.407 128.411,243.545 127.630 C 243.660 126.985,243.602 126.764,243.318 126.764 C 242.824 126.764,242.080 125.622,242.068 124.843 C 242.063 124.508,241.894 123.937,241.692 123.573 C 241.226 122.731,241.548 122.090,242.537 121.892 C 242.947 121.810,243.569 121.495,243.919 121.191 C 244.269 120.887,244.773 120.639,245.039 120.639 C 245.306 120.639,246.231 120.280,247.096 119.840 C 247.960 119.401,248.848 119.041,249.068 119.041 C 249.289 119.041,249.618 118.862,249.800 118.642 C 249.983 118.422,250.302 118.242,250.510 118.242 C 251.343 118.242,257.257 115.103,257.257 114.661 C 257.257 114.361,256.469 114.349,256.160 114.644 M245.539 118.791 C 245.027 119.061,244.701 119.288,244.815 119.295 C 245.142 119.315,246.871 118.553,246.871 118.389 C 246.871 118.162,246.551 118.258,245.539 118.791 M243.276 119.633 C 241.999 120.063,240.721 120.695,241.545 120.489 C 241.911 120.398,242.566 120.257,243.000 120.176 C 243.435 120.095,243.953 119.867,244.151 119.668 C 244.561 119.258,244.408 119.252,243.276 119.633 M109.454 127.024 C 101.064 127.197,101.281 127.476,109.858 127.544 C 116.120 127.593,117.622 127.476,116.867 126.998 C 116.671 126.874,116.451 126.797,116.378 126.828 C 116.305 126.859,113.189 126.947,109.454 127.024 M101.433 128.628 C 101.343 128.848,101.248 130.042,101.222 131.282 C 101.175 133.550,100.869 135.498,100.407 136.485 C 100.135 137.063,99.615 140.769,99.416 143.542 C 99.208 146.433,100.501 148.597,103.100 149.708 C 103.350 149.815,103.989 149.672,104.589 149.375 C 105.544 148.902,105.709 148.891,106.401 149.250 C 106.952 149.536,107.258 149.566,107.507 149.359 C 107.696 149.202,108.481 149.049,109.252 149.018 C 112.005 148.910,115.683 146.869,116.396 145.053 C 116.579 144.588,117.091 143.820,117.534 143.346 C 118.704 142.094,118.638 142.082,110.323 142.023 C 106.063 141.993,102.606 141.860,102.467 141.721 C 102.331 141.585,102.165 139.812,102.099 137.781 C 101.921 132.315,101.620 128.175,101.433 128.628 M118.670 129.850 C 118.415 130.515,118.483 133.422,118.753 133.422 C 118.888 133.422,119.037 132.571,119.086 131.532 C 119.172 129.696,118.998 128.994,118.670 129.850 M242.361 136.231 C 242.192 137.236,242.141 136.663,242.145 133.822 C 242.150 130.100,242.151 130.098,242.366 132.502 C 242.484 133.827,242.482 135.505,242.361 136.231 M279.361 131.385 C 279.361 131.773,279.823 131.824,283.356 131.824 C 285.841 131.824,287.350 131.724,287.350 131.558 C 287.350 131.407,286.572 131.291,285.553 131.290 C 284.564 131.289,282.766 131.211,281.558 131.117 C 279.626 130.967,279.361 130.999,279.361 131.385 M294.549 135.819 C 294.549 138.237,294.633 139.283,294.807 139.015 C 294.949 138.795,295.065 137.357,295.065 135.819 C 295.065 134.281,294.949 132.843,294.807 132.623 C 294.633 132.354,294.549 133.401,294.549 135.819 M277.109 134.026 C 276.957 134.516,276.418 139.078,276.186 141.834 C 276.073 143.164,275.783 144.651,275.541 145.137 C 274.883 146.454,274.950 149.345,275.673 150.832 C 276.688 152.922,277.454 153.160,282.735 153.022 C 288.545 152.871,289.328 152.621,290.664 150.490 C 291.195 149.643,291.985 148.610,292.419 148.194 C 293.701 146.965,293.377 146.724,290.280 146.600 C 289.181 146.557,286.185 146.436,283.622 146.332 C 277.410 146.080,278.029 146.800,278.029 139.833 C 278.029 134.840,277.971 133.989,277.620 133.855 C 277.394 133.768,277.165 133.845,277.109 134.026 M246.072 138.939 C 246.072 140.097,246.039 140.161,245.639 139.762 C 245.261 139.383,245.252 139.227,245.571 138.506 C 246.046 137.433,246.072 137.455,246.072 138.939 M118.686 138.127 C 118.422 138.391,118.471 141.145,118.740 141.145 C 118.867 141.145,118.988 140.426,119.008 139.547 C 119.044 137.941,119.012 137.801,118.686 138.127 M161.576 141.877 C 161.515 142.280,161.465 141.951,161.465 141.145 C 161.465 140.340,161.515 140.010,161.576 140.413 C 161.637 140.816,161.637 141.475,161.576 141.877 M116.571 142.661 C 116.740 143.160,113.497 143.434,106.329 143.527 L 105.202 143.542 105.715 144.454 C 106.347 145.581,106.133 145.806,104.179 146.069 C 102.299 146.322,100.705 144.740,102.021 143.927 C 102.180 143.829,102.252 143.525,102.180 143.253 C 102.079 142.865,102.233 142.726,102.890 142.616 C 105.349 142.201,116.428 142.238,116.571 142.661 M286.285 146.889 C 286.944 146.925,288.412 146.965,289.547 146.979 C 291.999 147.009,292.106 147.216,290.479 148.782 C 289.101 150.109,287.917 150.515,285.407 150.519 C 284.352 150.520,282.500 150.632,281.293 150.767 C 277.876 151.150,276.799 150.415,277.111 147.916 L 277.300 146.403 281.193 146.614 C 283.335 146.729,285.626 146.853,286.285 146.889 M241.744 148.015 C 241.419 148.080,241.278 148.361,241.278 148.947 L 241.278 149.785 241.837 149.227 C 242.481 148.582,242.427 147.877,241.744 148.015 M164.314 149.467 C 164.314 149.761,165.361 152.064,165.494 152.064 C 165.567 152.064,165.384 151.497,165.087 150.804 C 164.561 149.578,164.314 149.151,164.314 149.467 M161.300 151.705 C 161.035 151.970,161.078 152.863,161.356 152.863 C 161.487 152.863,161.656 152.702,161.731 152.506 C 161.896 152.077,161.557 151.448,161.300 151.705 M165.646 152.497 C 165.646 153.203,171.702 161.917,172.193 161.917 C 172.398 161.917,172.306 161.691,171.955 161.337 C 171.086 160.462,168.071 156.305,167.255 154.860 C 166.093 152.799,165.646 152.143,165.646 152.497 M175.100 164.581 C 175.292 164.892,178.003 166.976,179.095 167.653 C 179.534 167.925,179.834 168.079,179.760 167.995 C 179.453 167.644,174.957 164.350,175.100 164.581 M122.857 166.978 C 121.962 167.394,121.149 167.864,121.051 168.022 C 120.954 168.180,120.578 168.309,120.216 168.309 C 119.853 168.309,119.486 168.494,119.399 168.720 C 119.175 169.304,119.519 169.544,120.053 169.176 C 120.302 169.004,121.165 168.534,121.971 168.132 C 125.254 166.493,126.007 165.513,122.857 166.978 M125.899 166.621 C 126.082 166.695,126.232 166.862,126.232 166.992 C 126.232 167.388,127.611 170.223,128.491 171.638 C 128.947 172.370,129.477 173.355,129.669 173.826 C 129.861 174.297,130.184 174.821,130.388 174.990 C 131.283 175.733,130.837 176.666,129.228 177.422 C 128.048 177.976,127.896 178.105,128.567 177.984 C 130.754 177.591,127.524 180.188,124.171 181.519 C 120.756 182.875,119.041 182.523,119.041 180.466 C 119.041 180.102,118.927 179.765,118.787 179.716 C 118.648 179.667,118.451 179.088,118.349 178.429 L 118.164 177.230 118.727 177.896 C 119.037 178.262,119.294 178.436,119.299 178.282 C 119.304 178.128,119.195 177.889,119.057 177.750 C 118.920 177.611,118.291 176.497,117.659 175.275 C 115.840 171.754,115.999 171.869,115.632 173.803 C 115.356 175.257,115.368 175.632,115.710 176.293 C 115.931 176.721,116.112 177.313,116.112 177.609 C 116.112 177.905,116.387 178.780,116.723 179.553 C 117.059 180.326,117.500 181.476,117.703 182.107 C 118.544 184.723,120.068 185.089,123.013 183.383 C 124.124 182.739,125.333 182.128,125.699 182.025 C 126.974 181.665,128.881 179.918,130.932 177.232 C 131.961 175.884,132.005 175.657,131.330 175.182 C 131.058 174.990,130.751 174.568,130.649 174.243 C 130.546 173.917,129.930 172.766,129.279 171.683 C 128.628 170.601,128.096 169.604,128.096 169.468 C 128.096 168.582,126.598 166.437,125.999 166.466 C 125.723 166.479,125.687 166.536,125.899 166.621 M180.027 168.153 C 180.027 168.321,183.559 170.391,184.204 170.600 C 184.654 170.746,183.995 170.331,181.158 168.679 C 180.536 168.317,180.027 168.080,180.027 168.153 M117.523 169.744 C 117.406 169.947,117.071 170.173,116.778 170.246 C 116.406 170.338,116.487 170.384,117.044 170.400 C 117.788 170.421,118.775 169.933,118.775 169.545 C 118.775 169.213,117.733 169.379,117.523 169.744 M268.109 171.220 C 267.706 171.790,267.377 172.364,267.377 172.496 C 267.377 172.628,267.150 172.979,266.873 173.277 C 266.595 173.575,266.159 174.227,265.903 174.725 C 265.648 175.224,265.347 175.692,265.236 175.766 C 264.684 176.128,263.501 179.228,263.915 179.228 C 264.061 179.228,264.181 178.992,264.181 178.704 C 264.181 178.417,264.428 177.907,264.729 177.573 C 265.326 176.910,268.172 172.588,268.182 172.329 C 268.185 172.242,268.422 171.871,268.708 171.505 C 269.238 170.828,269.403 170.168,269.041 170.179 C 268.931 170.182,268.512 170.650,268.109 171.220 M271.414 170.972 C 271.896 171.411,272.436 171.771,272.616 171.771 C 272.795 171.771,273.265 172.071,273.660 172.437 C 274.055 172.803,274.541 173.103,274.739 173.103 C 274.938 173.103,275.100 173.222,275.100 173.369 C 275.100 173.515,275.216 173.635,275.358 173.635 C 276.029 173.635,275.132 172.760,273.198 171.529 C 270.795 170.000,270.118 169.788,271.414 170.972 M184.820 170.832 C 184.820 171.043,186.751 171.793,186.903 171.641 C 186.978 171.566,186.974 171.505,186.894 171.505 C 186.815 171.505,186.315 171.323,185.785 171.102 C 185.254 170.880,184.820 170.758,184.820 170.832 M189.578 172.713 C 190.071 172.927,190.670 173.097,190.909 173.091 C 191.149 173.084,190.866 172.906,190.280 172.695 C 188.900 172.198,188.419 172.211,189.578 172.713 M192.277 173.369 C 193.188 173.660,193.888 173.660,193.209 173.369 C 192.916 173.243,192.437 173.143,192.144 173.148 C 191.716 173.154,191.742 173.197,192.277 173.369 M194.176 173.759 C 194.244 173.827,195.013 173.941,195.885 174.012 C 196.950 174.099,197.252 174.067,196.804 173.915 C 196.100 173.675,193.966 173.549,194.176 173.759 M276.044 173.882 C 275.960 174.018,276.154 174.213,276.475 174.315 C 276.796 174.417,277.354 174.774,277.716 175.110 C 278.077 175.445,278.550 175.651,278.766 175.568 C 279.192 175.405,278.204 174.452,277.596 174.440 C 277.431 174.437,277.146 174.254,276.964 174.035 C 276.585 173.578,276.265 173.525,276.044 173.882 M199.001 174.365 C 199.844 174.417,201.222 174.417,202.064 174.365 C 202.906 174.312,202.217 174.268,200.533 174.268 C 198.848 174.268,198.159 174.312,199.001 174.365 M117.443 175.648 C 117.443 175.859,117.563 176.032,117.710 176.032 C 117.856 176.032,117.976 176.272,117.976 176.565 C 117.976 177.305,117.589 177.230,117.220 176.419 C 116.840 175.586,116.817 174.878,117.177 175.100 C 117.324 175.190,117.443 175.437,117.443 175.648 M277.284 178.766 C 274.248 183.167,273.286 184.977,273.738 185.429 C 273.896 185.587,274.069 185.665,274.121 185.601 C 275.495 183.940,279.095 177.896,279.095 177.251 C 279.095 176.658,278.250 177.365,277.284 178.766 M119.308 179.013 C 119.308 179.253,119.397 179.490,119.507 179.538 C 119.617 179.587,120.043 180.077,120.453 180.626 C 121.289 181.745,121.901 181.879,122.575 181.092 C 123.117 180.458,122.974 180.413,122.143 180.957 C 121.491 181.385,120.902 180.961,119.748 179.235 C 119.430 178.760,119.308 178.698,119.308 179.013 M124.035 179.913 C 123.039 180.453,123.100 180.678,124.101 180.160 C 124.541 179.933,124.900 179.690,124.900 179.620 C 124.900 179.449,124.872 179.459,124.035 179.913 M263.315 181.180 C 263.075 183.591,263.287 184.183,264.676 184.983 C 265.356 185.375,266.391 186.080,266.977 186.551 C 269.708 188.745,270.560 188.830,272.354 187.087 C 273.533 185.943,273.522 185.917,271.305 184.559 C 270.243 183.909,268.236 182.646,266.844 181.752 C 263.354 179.512,263.479 179.532,263.315 181.180 M266.118 181.558 C 266.737 181.961,267.284 182.380,267.332 182.490 C 267.381 182.600,267.527 182.690,267.657 182.690 C 268.078 182.690,272.118 185.365,272.262 185.739 C 272.349 185.966,272.157 186.164,271.753 186.266 C 271.397 186.355,271.105 186.546,271.105 186.689 C 271.105 186.833,270.878 186.951,270.600 186.951 C 270.031 186.951,268.442 185.277,268.442 184.678 C 268.442 184.463,268.302 184.288,268.132 184.288 C 267.961 184.288,267.631 184.102,267.399 183.876 C 267.167 183.649,266.426 183.124,265.751 182.708 C 265.077 182.292,264.459 181.699,264.378 181.389 C 264.174 180.607,264.741 180.663,266.118 181.558 M154.166 198.153 C 153.660 198.466,153.895 198.664,157.150 200.656 C 162.188 203.740,162.244 203.841,160.543 206.684 C 159.907 207.746,159.207 208.923,158.986 209.301 C 156.189 214.079,156.805 213.914,152.131 211.149 C 146.177 207.627,146.116 207.569,147.264 206.531 C 147.553 206.269,147.870 205.801,147.968 205.491 C 148.066 205.181,148.428 204.556,148.773 204.103 C 149.118 203.649,149.401 203.163,149.401 203.021 C 149.401 202.879,149.648 202.498,149.951 202.173 C 150.263 201.838,150.461 201.327,150.408 200.991 C 150.328 200.479,150.239 200.545,149.745 201.483 C 149.430 202.078,148.985 202.722,148.754 202.913 C 148.524 203.104,148.336 203.431,148.336 203.640 C 148.336 203.848,148.057 204.298,147.716 204.638 C 146.697 205.658,146.129 207.710,146.199 210.120 C 146.245 211.697,146.695 212.323,148.393 213.176 C 149.880 213.922,150.309 214.163,151.801 215.091 C 153.691 216.265,154.445 216.190,156.298 214.648 C 157.741 213.447,160.852 209.696,160.852 209.156 C 160.852 209.050,161.019 208.774,161.222 208.543 C 161.425 208.312,161.911 207.523,162.301 206.791 C 163.347 204.830,163.613 204.417,163.981 204.181 C 164.528 203.832,164.360 203.200,163.648 202.929 C 163.282 202.790,162.983 202.541,162.983 202.375 C 162.983 202.209,162.816 202.138,162.612 202.216 C 162.407 202.294,161.967 202.067,161.633 201.712 C 161.299 201.356,160.863 201.065,160.664 201.065 C 160.465 201.065,160.234 200.885,160.150 200.666 C 160.065 200.446,159.827 200.266,159.620 200.266 C 159.413 200.266,158.557 199.898,157.718 199.447 C 155.390 198.198,154.574 197.901,154.166 198.153 M151.041 199.080 C 150.540 200.180,150.648 200.715,151.220 199.969 C 151.916 199.062,152.118 198.402,151.699 198.402 C 151.507 198.402,151.211 198.707,151.041 199.080 M242.341 199.603 C 242.160 199.822,241.854 200.000,241.661 200.000 C 241.468 200.000,241.236 200.120,241.145 200.266 C 241.055 200.413,241.197 200.530,241.462 200.527 C 242.103 200.519,243.294 199.592,242.943 199.375 C 242.793 199.283,242.522 199.385,242.341 199.603 M245.284 199.749 C 245.278 199.976,245.578 200.576,245.952 201.080 C 246.325 201.585,246.886 202.507,247.197 203.129 C 247.509 203.752,247.863 204.261,247.983 204.261 C 248.104 204.261,248.202 204.432,248.202 204.641 C 248.202 205.064,248.992 205.957,249.190 205.758 C 249.342 205.607,247.387 202.035,247.084 201.909 C 246.967 201.860,246.871 201.675,246.871 201.499 C 246.871 200.997,245.297 199.260,245.284 199.749 M239.121 201.455 C 238.623 201.817,237.718 202.364,237.110 202.671 C 235.677 203.395,234.831 204.261,235.557 204.261 C 235.824 204.261,236.263 204.062,236.532 203.819 C 237.100 203.304,238.017 202.744,238.682 202.503 C 238.938 202.410,239.148 202.229,239.148 202.099 C 239.148 201.970,239.309 201.864,239.506 201.864 C 239.703 201.864,240.081 201.625,240.346 201.332 C 241.060 200.543,240.268 200.623,239.121 201.455 M234.751 206.572 C 234.666 206.985,234.482 207.757,234.342 208.287 C 234.017 209.517,234.000 209.404,234.621 210.120 C 234.913 210.458,235.153 210.936,235.153 211.183 C 235.153 211.758,237.544 215.881,238.436 216.844 C 239.330 217.810,240.823 217.846,242.104 216.931 C 242.602 216.575,243.549 215.959,244.208 215.561 C 247.461 213.599,248.009 213.156,248.629 211.988 C 248.981 211.327,249.475 210.497,249.728 210.144 C 249.981 209.791,250.071 209.558,249.927 209.625 C 246.968 211.018,246.502 211.301,247.670 210.996 C 249.546 210.505,245.910 213.661,243.019 215.034 C 240.098 216.420,239.042 216.300,239.091 214.588 C 239.103 214.158,238.882 213.426,238.600 212.962 C 238.318 212.497,237.953 211.818,237.790 211.451 C 237.626 211.085,237.386 210.578,237.255 210.323 C 236.771 209.382,237.042 209.541,237.860 210.679 C 238.323 211.324,238.802 211.891,238.925 211.940 C 239.047 211.988,239.148 212.130,239.148 212.255 C 239.148 212.379,239.526 213.090,239.989 213.834 L 240.829 215.186 241.520 214.741 C 243.264 213.616,244.049 213.049,243.865 213.049 C 243.755 213.049,243.179 213.356,242.585 213.731 C 241.041 214.705,240.838 214.572,238.885 211.306 C 235.608 205.826,235.040 205.176,234.751 206.572 M249.542 206.804 C 249.547 207.236,249.740 207.830,249.972 208.123 C 250.369 208.625,250.382 208.595,250.209 207.590 C 249.978 206.250,249.531 205.723,249.542 206.804 M160.586 208.007 C 160.586 208.163,160.286 208.684,159.920 209.164 C 159.554 209.644,159.254 210.175,159.254 210.345 C 159.254 210.514,159.148 210.652,159.019 210.652 C 158.890 210.652,158.721 210.892,158.645 211.185 C 158.568 211.478,158.360 211.718,158.182 211.718 C 157.962 211.718,158.001 211.524,158.300 211.119 C 158.543 210.789,158.811 210.310,158.896 210.053 C 158.981 209.797,159.156 209.587,159.285 209.587 C 159.415 209.587,159.521 209.406,159.521 209.184 C 159.521 208.702,160.099 207.723,160.384 207.723 C 160.495 207.723,160.586 207.851,160.586 208.007 M148.991 209.610 C 149.641 209.916,150.313 210.335,150.485 210.542 C 150.657 210.749,150.888 210.919,150.999 210.919 C 151.178 210.919,153.012 211.989,154.660 213.056 C 155.555 213.635,155.408 214.115,154.336 214.115 C 153.624 214.115,153.447 214.023,153.565 213.715 C 153.663 213.462,153.562 213.316,153.291 213.316 C 153.055 213.316,152.863 213.209,152.863 213.078 C 152.863 212.948,152.591 212.772,152.258 212.689 C 151.926 212.606,151.407 212.307,151.104 212.025 C 150.802 211.744,150.145 211.425,149.645 211.318 C 148.340 211.037,147.803 210.701,147.803 210.164 C 147.803 209.905,147.659 209.550,147.483 209.374 C 146.978 208.869,147.631 208.971,148.991 209.610 M191.838 213.379 C 191.769 213.491,193.068 213.564,194.725 213.542 C 197.967 213.499,197.749 213.384,194.184 213.256 C 192.963 213.212,191.907 213.268,191.838 213.379 M203.506 213.283 C 203.238 213.453,203.293 213.545,203.732 213.660 C 204.424 213.841,205.116 213.622,204.910 213.288 C 204.725 212.988,203.974 212.986,203.506 213.283 M205.612 221.053 C 205.637 227.785,205.707 228.887,206.094 228.648 C 206.441 228.433,206.260 214.293,205.908 214.175 C 205.660 214.093,205.591 215.682,205.612 221.053 M189.973 215.759 C 187.856 225.909,187.688 226.913,187.555 230.272 C 187.317 236.258,188.354 237.408,193.931 237.336 C 198.983 237.270,200.680 236.492,202.654 233.335 C 203.357 232.211,204.185 231.039,204.496 230.731 C 205.326 229.906,205.197 229.560,204.061 229.565 C 203.418 229.567,203.188 229.648,203.416 229.793 C 203.679 229.960,203.507 230.223,202.741 230.831 C 202.175 231.279,201.559 231.932,201.371 232.283 C 200.834 233.287,199.588 233.766,195.981 234.357 C 190.700 235.221,190.126 234.841,190.191 230.518 C 190.216 228.893,190.283 228.013,190.340 228.562 C 190.398 229.111,190.528 229.562,190.629 229.564 C 190.730 229.566,191.112 229.641,191.478 229.731 C 192.100 229.883,192.111 229.868,191.650 229.511 C 191.203 229.164,191.143 228.547,191.010 222.901 C 190.930 219.476,190.730 216.148,190.566 215.507 L 190.268 214.340 189.973 215.759 M192.876 229.744 C 193.132 229.811,193.552 229.811,193.808 229.744 C 194.065 229.677,193.855 229.622,193.342 229.622 C 192.830 229.622,192.620 229.677,192.876 229.744 " stroke="none" fill="#c9070a" fill-rule="evenodd"></path></g></svg>